<?xml version="1.0" encoding="utf-8" standalone="no"?>
<!DOCTYPE svg PUBLIC "-//W3C//DTD SVG 1.1//EN"
  "http://www.w3.org/Graphics/SVG/1.1/DTD/svg11.dtd">
<svg xmlns:xlink="http://www.w3.org/1999/xlink" width="720pt" height="720pt" viewBox="0 0 720 720" xmlns="http://www.w3.org/2000/svg" version="1.1">
 <metadata>
  <rdf:RDF xmlns:dc="http://purl.org/dc/elements/1.1/" xmlns:cc="http://creativecommons.org/ns#" xmlns:rdf="http://www.w3.org/1999/02/22-rdf-syntax-ns#">
   <cc:Work>
    <dc:type rdf:resource="http://purl.org/dc/dcmitype/StillImage"/>
    <dc:date>2022-04-24T00:58:10.794994</dc:date>
    <dc:format>image/svg+xml</dc:format>
    <dc:creator>
     <cc:Agent>
      <dc:title>Matplotlib v3.5.0, https://matplotlib.org/</dc:title>
     </cc:Agent>
    </dc:creator>
   </cc:Work>
  </rdf:RDF>
 </metadata>
 <defs>
  <style type="text/css">*{stroke-linejoin: round; stroke-linecap: butt}</style>
 </defs>
 <g id="figure_1">
  <g id="patch_1">
   <path d="M 0 720 
L 720 720 
L 720 0 
L 0 0 
L 0 720 
z
" style="fill: none"/>
  </g>
  <g id="axes_1">
   <g id="patch_2">
    <path d="M 90 630 
L 648 630 
L 648 86.4 
L 90 86.4 
z
" style="fill: #ffffff"/>
   </g>
   <g id="QuadMesh_1">
    <path d="M 90 86.4 
L 169.714286 86.4 
L 169.714286 164.057143 
L 90 164.057143 
L 90 86.4 
" clip-path="url(#pe0ce42e027)" style="fill: #08306b"/>
    <path d="M 169.714286 86.4 
L 249.428571 86.4 
L 249.428571 164.057143 
L 169.714286 164.057143 
L 169.714286 86.4 
" clip-path="url(#pe0ce42e027)" style="fill: #08306b"/>
    <path d="M 249.428571 86.4 
L 329.142857 86.4 
L 329.142857 164.057143 
L 249.428571 164.057143 
L 249.428571 86.4 
" clip-path="url(#pe0ce42e027)" style="fill: #08306b"/>
    <path d="M 329.142857 86.4 
L 408.857143 86.4 
L 408.857143 164.057143 
L 329.142857 164.057143 
L 329.142857 86.4 
" clip-path="url(#pe0ce42e027)" style="fill: #08306b"/>
    <path d="M 408.857143 86.4 
L 488.571429 86.4 
L 488.571429 164.057143 
L 408.857143 164.057143 
L 408.857143 86.4 
" clip-path="url(#pe0ce42e027)" style="fill: #08306b"/>
    <path d="M 488.571429 86.4 
L 568.285714 86.4 
L 568.285714 164.057143 
L 488.571429 164.057143 
L 488.571429 86.4 
" clip-path="url(#pe0ce42e027)" style="fill: #08306b"/>
    <path d="M 568.285714 86.4 
L 648 86.4 
L 648 164.057143 
L 568.285714 164.057143 
L 568.285714 86.4 
" clip-path="url(#pe0ce42e027)" style="fill: #08306b"/>
    <path d="M 90 164.057143 
L 169.714286 164.057143 
L 169.714286 241.714286 
L 90 241.714286 
L 90 164.057143 
" clip-path="url(#pe0ce42e027)" style="fill: #08306b"/>
    <path d="M 169.714286 164.057143 
L 249.428571 164.057143 
L 249.428571 241.714286 
L 169.714286 241.714286 
L 169.714286 164.057143 
" clip-path="url(#pe0ce42e027)" style="fill: #3787c0"/>
    <path d="M 249.428571 164.057143 
L 329.142857 164.057143 
L 329.142857 241.714286 
L 249.428571 241.714286 
L 249.428571 164.057143 
" clip-path="url(#pe0ce42e027)" style="fill: #3787c0"/>
    <path d="M 329.142857 164.057143 
L 408.857143 164.057143 
L 408.857143 241.714286 
L 329.142857 241.714286 
L 329.142857 164.057143 
" clip-path="url(#pe0ce42e027)" style="fill: #3787c0"/>
    <path d="M 408.857143 164.057143 
L 488.571429 164.057143 
L 488.571429 241.714286 
L 408.857143 241.714286 
L 408.857143 164.057143 
" clip-path="url(#pe0ce42e027)" style="fill: #3787c0"/>
    <path d="M 488.571429 164.057143 
L 568.285714 164.057143 
L 568.285714 241.714286 
L 488.571429 241.714286 
L 488.571429 164.057143 
" clip-path="url(#pe0ce42e027)" style="fill: #3787c0"/>
    <path d="M 568.285714 164.057143 
L 648 164.057143 
L 648 241.714286 
L 568.285714 241.714286 
L 568.285714 164.057143 
" clip-path="url(#pe0ce42e027)" style="fill: #08306b"/>
    <path d="M 90 241.714286 
L 169.714286 241.714286 
L 169.714286 319.371429 
L 90 319.371429 
L 90 241.714286 
" clip-path="url(#pe0ce42e027)" style="fill: #08306b"/>
    <path d="M 169.714286 241.714286 
L 249.428571 241.714286 
L 249.428571 319.371429 
L 169.714286 319.371429 
L 169.714286 241.714286 
" clip-path="url(#pe0ce42e027)" style="fill: #3787c0"/>
    <path d="M 249.428571 241.714286 
L 329.142857 241.714286 
L 329.142857 319.371429 
L 249.428571 319.371429 
L 249.428571 241.714286 
" clip-path="url(#pe0ce42e027)" style="fill: #abd0e6"/>
    <path d="M 329.142857 241.714286 
L 408.857143 241.714286 
L 408.857143 319.371429 
L 329.142857 319.371429 
L 329.142857 241.714286 
" clip-path="url(#pe0ce42e027)" style="fill: #abd0e6"/>
    <path d="M 408.857143 241.714286 
L 488.571429 241.714286 
L 488.571429 319.371429 
L 408.857143 319.371429 
L 408.857143 241.714286 
" clip-path="url(#pe0ce42e027)" style="fill: #abd0e6"/>
    <path d="M 488.571429 241.714286 
L 568.285714 241.714286 
L 568.285714 319.371429 
L 488.571429 319.371429 
L 488.571429 241.714286 
" clip-path="url(#pe0ce42e027)" style="fill: #3787c0"/>
    <path d="M 568.285714 241.714286 
L 648 241.714286 
L 648 319.371429 
L 568.285714 319.371429 
L 568.285714 241.714286 
" clip-path="url(#pe0ce42e027)" style="fill: #08306b"/>
    <path d="M 90 319.371429 
L 169.714286 319.371429 
L 169.714286 397.028571 
L 90 397.028571 
L 90 319.371429 
" clip-path="url(#pe0ce42e027)" style="fill: #08306b"/>
    <path d="M 169.714286 319.371429 
L 249.428571 319.371429 
L 249.428571 397.028571 
L 169.714286 397.028571 
L 169.714286 319.371429 
" clip-path="url(#pe0ce42e027)" style="fill: #3787c0"/>
    <path d="M 249.428571 319.371429 
L 329.142857 319.371429 
L 329.142857 397.028571 
L 249.428571 397.028571 
L 249.428571 319.371429 
" clip-path="url(#pe0ce42e027)" style="fill: #abd0e6"/>
    <path d="M 329.142857 319.371429 
L 408.857143 319.371429 
L 408.857143 397.028571 
L 329.142857 397.028571 
L 329.142857 319.371429 
" clip-path="url(#pe0ce42e027)" style="fill: #f7fbff"/>
    <path d="M 408.857143 319.371429 
L 488.571429 319.371429 
L 488.571429 397.028571 
L 408.857143 397.028571 
L 408.857143 319.371429 
" clip-path="url(#pe0ce42e027)" style="fill: #abd0e6"/>
    <path d="M 488.571429 319.371429 
L 568.285714 319.371429 
L 568.285714 397.028571 
L 488.571429 397.028571 
L 488.571429 319.371429 
" clip-path="url(#pe0ce42e027)" style="fill: #3787c0"/>
    <path d="M 568.285714 319.371429 
L 648 319.371429 
L 648 397.028571 
L 568.285714 397.028571 
L 568.285714 319.371429 
" clip-path="url(#pe0ce42e027)" style="fill: #08306b"/>
    <path d="M 90 397.028571 
L 169.714286 397.028571 
L 169.714286 474.685714 
L 90 474.685714 
L 90 397.028571 
" clip-path="url(#pe0ce42e027)" style="fill: #08306b"/>
    <path d="M 169.714286 397.028571 
L 249.428571 397.028571 
L 249.428571 474.685714 
L 169.714286 474.685714 
L 169.714286 397.028571 
" clip-path="url(#pe0ce42e027)" style="fill: #3787c0"/>
    <path d="M 249.428571 397.028571 
L 329.142857 397.028571 
L 329.142857 474.685714 
L 249.428571 474.685714 
L 249.428571 397.028571 
" clip-path="url(#pe0ce42e027)" style="fill: #abd0e6"/>
    <path d="M 329.142857 397.028571 
L 408.857143 397.028571 
L 408.857143 474.685714 
L 329.142857 474.685714 
L 329.142857 397.028571 
" clip-path="url(#pe0ce42e027)" style="fill: #abd0e6"/>
    <path d="M 408.857143 397.028571 
L 488.571429 397.028571 
L 488.571429 474.685714 
L 408.857143 474.685714 
L 408.857143 397.028571 
" clip-path="url(#pe0ce42e027)" style="fill: #abd0e6"/>
    <path d="M 488.571429 397.028571 
L 568.285714 397.028571 
L 568.285714 474.685714 
L 488.571429 474.685714 
L 488.571429 397.028571 
" clip-path="url(#pe0ce42e027)" style="fill: #3787c0"/>
    <path d="M 568.285714 397.028571 
L 648 397.028571 
L 648 474.685714 
L 568.285714 474.685714 
L 568.285714 397.028571 
" clip-path="url(#pe0ce42e027)" style="fill: #08306b"/>
    <path d="M 90 474.685714 
L 169.714286 474.685714 
L 169.714286 552.342857 
L 90 552.342857 
L 90 474.685714 
" clip-path="url(#pe0ce42e027)" style="fill: #08306b"/>
    <path d="M 169.714286 474.685714 
L 249.428571 474.685714 
L 249.428571 552.342857 
L 169.714286 552.342857 
L 169.714286 474.685714 
" clip-path="url(#pe0ce42e027)" style="fill: #3787c0"/>
    <path d="M 249.428571 474.685714 
L 329.142857 474.685714 
L 329.142857 552.342857 
L 249.428571 552.342857 
L 249.428571 474.685714 
" clip-path="url(#pe0ce42e027)" style="fill: #3787c0"/>
    <path d="M 329.142857 474.685714 
L 408.857143 474.685714 
L 408.857143 552.342857 
L 329.142857 552.342857 
L 329.142857 474.685714 
" clip-path="url(#pe0ce42e027)" style="fill: #3787c0"/>
    <path d="M 408.857143 474.685714 
L 488.571429 474.685714 
L 488.571429 552.342857 
L 408.857143 552.342857 
L 408.857143 474.685714 
" clip-path="url(#pe0ce42e027)" style="fill: #3787c0"/>
    <path d="M 488.571429 474.685714 
L 568.285714 474.685714 
L 568.285714 552.342857 
L 488.571429 552.342857 
L 488.571429 474.685714 
" clip-path="url(#pe0ce42e027)" style="fill: #3787c0"/>
    <path d="M 568.285714 474.685714 
L 648 474.685714 
L 648 552.342857 
L 568.285714 552.342857 
L 568.285714 474.685714 
" clip-path="url(#pe0ce42e027)" style="fill: #08306b"/>
    <path d="M 90 552.342857 
L 169.714286 552.342857 
L 169.714286 630 
L 90 630 
L 90 552.342857 
" clip-path="url(#pe0ce42e027)" style="fill: #08306b"/>
    <path d="M 169.714286 552.342857 
L 249.428571 552.342857 
L 249.428571 630 
L 169.714286 630 
L 169.714286 552.342857 
" clip-path="url(#pe0ce42e027)" style="fill: #08306b"/>
    <path d="M 249.428571 552.342857 
L 329.142857 552.342857 
L 329.142857 630 
L 249.428571 630 
L 249.428571 552.342857 
" clip-path="url(#pe0ce42e027)" style="fill: #08306b"/>
    <path d="M 329.142857 552.342857 
L 408.857143 552.342857 
L 408.857143 630 
L 329.142857 630 
L 329.142857 552.342857 
" clip-path="url(#pe0ce42e027)" style="fill: #08306b"/>
    <path d="M 408.857143 552.342857 
L 488.571429 552.342857 
L 488.571429 630 
L 408.857143 630 
L 408.857143 552.342857 
" clip-path="url(#pe0ce42e027)" style="fill: #08306b"/>
    <path d="M 488.571429 552.342857 
L 568.285714 552.342857 
L 568.285714 630 
L 488.571429 630 
L 488.571429 552.342857 
" clip-path="url(#pe0ce42e027)" style="fill: #08306b"/>
    <path d="M 568.285714 552.342857 
L 648 552.342857 
L 648 630 
L 568.285714 630 
L 568.285714 552.342857 
" clip-path="url(#pe0ce42e027)" style="fill: #08306b"/>
   </g>
   <g id="matplotlib.axis_1"/>
   <g id="matplotlib.axis_2"/>
   <g id="text_1">
    <!-- 3 -->
    <g style="fill: #ffffff" transform="translate(126.675893 127.987946)scale(0.1 -0.1)">
     <defs>
      <path id="DejaVuSans-33" d="M 2597 2516 
Q 3050 2419 3304 2112 
Q 3559 1806 3559 1356 
Q 3559 666 3084 287 
Q 2609 -91 1734 -91 
Q 1441 -91 1130 -33 
Q 819 25 488 141 
L 488 750 
Q 750 597 1062 519 
Q 1375 441 1716 441 
Q 2309 441 2620 675 
Q 2931 909 2931 1356 
Q 2931 1769 2642 2001 
Q 2353 2234 1838 2234 
L 1294 2234 
L 1294 2753 
L 1863 2753 
Q 2328 2753 2575 2939 
Q 2822 3125 2822 3475 
Q 2822 3834 2567 4026 
Q 2313 4219 1838 4219 
Q 1578 4219 1281 4162 
Q 984 4106 628 3988 
L 628 4550 
Q 988 4650 1302 4700 
Q 1616 4750 1894 4750 
Q 2613 4750 3031 4423 
Q 3450 4097 3450 3541 
Q 3450 3153 3228 2886 
Q 3006 2619 2597 2516 
z
" transform="scale(0.015625)"/>
     </defs>
     <use xlink:href="#DejaVuSans-33"/>
    </g>
   </g>
   <g id="text_2">
    <!-- 3 -->
    <g style="fill: #ffffff" transform="translate(206.390179 127.987946)scale(0.1 -0.1)">
     <use xlink:href="#DejaVuSans-33"/>
    </g>
   </g>
   <g id="text_3">
    <!-- 3 -->
    <g style="fill: #ffffff" transform="translate(286.104464 127.987946)scale(0.1 -0.1)">
     <use xlink:href="#DejaVuSans-33"/>
    </g>
   </g>
   <g id="text_4">
    <!-- 3 -->
    <g style="fill: #ffffff" transform="translate(365.81875 127.987946)scale(0.1 -0.1)">
     <use xlink:href="#DejaVuSans-33"/>
    </g>
   </g>
   <g id="text_5">
    <!-- 3 -->
    <g style="fill: #ffffff" transform="translate(445.533036 127.987946)scale(0.1 -0.1)">
     <use xlink:href="#DejaVuSans-33"/>
    </g>
   </g>
   <g id="text_6">
    <!-- 3 -->
    <g style="fill: #ffffff" transform="translate(525.247321 127.987946)scale(0.1 -0.1)">
     <use xlink:href="#DejaVuSans-33"/>
    </g>
   </g>
   <g id="text_7">
    <!-- 3 -->
    <g style="fill: #ffffff" transform="translate(604.961607 127.987946)scale(0.1 -0.1)">
     <use xlink:href="#DejaVuSans-33"/>
    </g>
   </g>
   <g id="text_8">
    <!-- 3 -->
    <g style="fill: #ffffff" transform="translate(126.675893 205.645089)scale(0.1 -0.1)">
     <use xlink:href="#DejaVuSans-33"/>
    </g>
   </g>
   <g id="text_9">
    <!-- 2 -->
    <g style="fill: #ffffff" transform="translate(206.390179 205.645089)scale(0.1 -0.1)">
     <defs>
      <path id="DejaVuSans-32" d="M 1228 531 
L 3431 531 
L 3431 0 
L 469 0 
L 469 531 
Q 828 903 1448 1529 
Q 2069 2156 2228 2338 
Q 2531 2678 2651 2914 
Q 2772 3150 2772 3378 
Q 2772 3750 2511 3984 
Q 2250 4219 1831 4219 
Q 1534 4219 1204 4116 
Q 875 4013 500 3803 
L 500 4441 
Q 881 4594 1212 4672 
Q 1544 4750 1819 4750 
Q 2544 4750 2975 4387 
Q 3406 4025 3406 3419 
Q 3406 3131 3298 2873 
Q 3191 2616 2906 2266 
Q 2828 2175 2409 1742 
Q 1991 1309 1228 531 
z
" transform="scale(0.015625)"/>
     </defs>
     <use xlink:href="#DejaVuSans-32"/>
    </g>
   </g>
   <g id="text_10">
    <!-- 2 -->
    <g style="fill: #ffffff" transform="translate(286.104464 205.645089)scale(0.1 -0.1)">
     <use xlink:href="#DejaVuSans-32"/>
    </g>
   </g>
   <g id="text_11">
    <!-- 2 -->
    <g style="fill: #ffffff" transform="translate(365.81875 205.645089)scale(0.1 -0.1)">
     <use xlink:href="#DejaVuSans-32"/>
    </g>
   </g>
   <g id="text_12">
    <!-- 2 -->
    <g style="fill: #ffffff" transform="translate(445.533036 205.645089)scale(0.1 -0.1)">
     <use xlink:href="#DejaVuSans-32"/>
    </g>
   </g>
   <g id="text_13">
    <!-- 2 -->
    <g style="fill: #ffffff" transform="translate(525.247321 205.645089)scale(0.1 -0.1)">
     <use xlink:href="#DejaVuSans-32"/>
    </g>
   </g>
   <g id="text_14">
    <!-- 3 -->
    <g style="fill: #ffffff" transform="translate(604.961607 205.645089)scale(0.1 -0.1)">
     <use xlink:href="#DejaVuSans-33"/>
    </g>
   </g>
   <g id="text_15">
    <!-- 3 -->
    <g style="fill: #ffffff" transform="translate(126.675893 283.302232)scale(0.1 -0.1)">
     <use xlink:href="#DejaVuSans-33"/>
    </g>
   </g>
   <g id="text_16">
    <!-- 2 -->
    <g style="fill: #ffffff" transform="translate(206.390179 283.302232)scale(0.1 -0.1)">
     <use xlink:href="#DejaVuSans-32"/>
    </g>
   </g>
   <g id="text_17">
    <!-- 1 -->
    <g style="fill: #262626" transform="translate(286.104464 283.302232)scale(0.1 -0.1)">
     <defs>
      <path id="DejaVuSans-31" d="M 794 531 
L 1825 531 
L 1825 4091 
L 703 3866 
L 703 4441 
L 1819 4666 
L 2450 4666 
L 2450 531 
L 3481 531 
L 3481 0 
L 794 0 
L 794 531 
z
" transform="scale(0.015625)"/>
     </defs>
     <use xlink:href="#DejaVuSans-31"/>
    </g>
   </g>
   <g id="text_18">
    <!-- 1 -->
    <g style="fill: #262626" transform="translate(365.81875 283.302232)scale(0.1 -0.1)">
     <use xlink:href="#DejaVuSans-31"/>
    </g>
   </g>
   <g id="text_19">
    <!-- 1 -->
    <g style="fill: #262626" transform="translate(445.533036 283.302232)scale(0.1 -0.1)">
     <use xlink:href="#DejaVuSans-31"/>
    </g>
   </g>
   <g id="text_20">
    <!-- 2 -->
    <g style="fill: #ffffff" transform="translate(525.247321 283.302232)scale(0.1 -0.1)">
     <use xlink:href="#DejaVuSans-32"/>
    </g>
   </g>
   <g id="text_21">
    <!-- 3 -->
    <g style="fill: #ffffff" transform="translate(604.961607 283.302232)scale(0.1 -0.1)">
     <use xlink:href="#DejaVuSans-33"/>
    </g>
   </g>
   <g id="text_22">
    <!-- 3 -->
    <g style="fill: #ffffff" transform="translate(126.675893 360.959375)scale(0.1 -0.1)">
     <use xlink:href="#DejaVuSans-33"/>
    </g>
   </g>
   <g id="text_23">
    <!-- 2 -->
    <g style="fill: #ffffff" transform="translate(206.390179 360.959375)scale(0.1 -0.1)">
     <use xlink:href="#DejaVuSans-32"/>
    </g>
   </g>
   <g id="text_24">
    <!-- 1 -->
    <g style="fill: #262626" transform="translate(286.104464 360.959375)scale(0.1 -0.1)">
     <use xlink:href="#DejaVuSans-31"/>
    </g>
   </g>
   <g id="text_25">
    <!-- 0 -->
    <g style="fill: #262626" transform="translate(365.81875 360.959375)scale(0.1 -0.1)">
     <defs>
      <path id="DejaVuSans-30" d="M 2034 4250 
Q 1547 4250 1301 3770 
Q 1056 3291 1056 2328 
Q 1056 1369 1301 889 
Q 1547 409 2034 409 
Q 2525 409 2770 889 
Q 3016 1369 3016 2328 
Q 3016 3291 2770 3770 
Q 2525 4250 2034 4250 
z
M 2034 4750 
Q 2819 4750 3233 4129 
Q 3647 3509 3647 2328 
Q 3647 1150 3233 529 
Q 2819 -91 2034 -91 
Q 1250 -91 836 529 
Q 422 1150 422 2328 
Q 422 3509 836 4129 
Q 1250 4750 2034 4750 
z
" transform="scale(0.015625)"/>
     </defs>
     <use xlink:href="#DejaVuSans-30"/>
    </g>
   </g>
   <g id="text_26">
    <!-- 1 -->
    <g style="fill: #262626" transform="translate(445.533036 360.959375)scale(0.1 -0.1)">
     <use xlink:href="#DejaVuSans-31"/>
    </g>
   </g>
   <g id="text_27">
    <!-- 2 -->
    <g style="fill: #ffffff" transform="translate(525.247321 360.959375)scale(0.1 -0.1)">
     <use xlink:href="#DejaVuSans-32"/>
    </g>
   </g>
   <g id="text_28">
    <!-- 3 -->
    <g style="fill: #ffffff" transform="translate(604.961607 360.959375)scale(0.1 -0.1)">
     <use xlink:href="#DejaVuSans-33"/>
    </g>
   </g>
   <g id="text_29">
    <!-- 3 -->
    <g style="fill: #ffffff" transform="translate(126.675893 438.616518)scale(0.1 -0.1)">
     <use xlink:href="#DejaVuSans-33"/>
    </g>
   </g>
   <g id="text_30">
    <!-- 2 -->
    <g style="fill: #ffffff" transform="translate(206.390179 438.616518)scale(0.1 -0.1)">
     <use xlink:href="#DejaVuSans-32"/>
    </g>
   </g>
   <g id="text_31">
    <!-- 1 -->
    <g style="fill: #262626" transform="translate(286.104464 438.616518)scale(0.1 -0.1)">
     <use xlink:href="#DejaVuSans-31"/>
    </g>
   </g>
   <g id="text_32">
    <!-- 1 -->
    <g style="fill: #262626" transform="translate(365.81875 438.616518)scale(0.1 -0.1)">
     <use xlink:href="#DejaVuSans-31"/>
    </g>
   </g>
   <g id="text_33">
    <!-- 1 -->
    <g style="fill: #262626" transform="translate(445.533036 438.616518)scale(0.1 -0.1)">
     <use xlink:href="#DejaVuSans-31"/>
    </g>
   </g>
   <g id="text_34">
    <!-- 2 -->
    <g style="fill: #ffffff" transform="translate(525.247321 438.616518)scale(0.1 -0.1)">
     <use xlink:href="#DejaVuSans-32"/>
    </g>
   </g>
   <g id="text_35">
    <!-- 3 -->
    <g style="fill: #ffffff" transform="translate(604.961607 438.616518)scale(0.1 -0.1)">
     <use xlink:href="#DejaVuSans-33"/>
    </g>
   </g>
   <g id="text_36">
    <!-- 3 -->
    <g style="fill: #ffffff" transform="translate(126.675893 516.273661)scale(0.1 -0.1)">
     <use xlink:href="#DejaVuSans-33"/>
    </g>
   </g>
   <g id="text_37">
    <!-- 2 -->
    <g style="fill: #ffffff" transform="translate(206.390179 516.273661)scale(0.1 -0.1)">
     <use xlink:href="#DejaVuSans-32"/>
    </g>
   </g>
   <g id="text_38">
    <!-- 2 -->
    <g style="fill: #ffffff" transform="translate(286.104464 516.273661)scale(0.1 -0.1)">
     <use xlink:href="#DejaVuSans-32"/>
    </g>
   </g>
   <g id="text_39">
    <!-- 2 -->
    <g style="fill: #ffffff" transform="translate(365.81875 516.273661)scale(0.1 -0.1)">
     <use xlink:href="#DejaVuSans-32"/>
    </g>
   </g>
   <g id="text_40">
    <!-- 2 -->
    <g style="fill: #ffffff" transform="translate(445.533036 516.273661)scale(0.1 -0.1)">
     <use xlink:href="#DejaVuSans-32"/>
    </g>
   </g>
   <g id="text_41">
    <!-- 2 -->
    <g style="fill: #ffffff" transform="translate(525.247321 516.273661)scale(0.1 -0.1)">
     <use xlink:href="#DejaVuSans-32"/>
    </g>
   </g>
   <g id="text_42">
    <!-- 3 -->
    <g style="fill: #ffffff" transform="translate(604.961607 516.273661)scale(0.1 -0.1)">
     <use xlink:href="#DejaVuSans-33"/>
    </g>
   </g>
   <g id="text_43">
    <!-- 3 -->
    <g style="fill: #ffffff" transform="translate(126.675893 593.930804)scale(0.1 -0.1)">
     <use xlink:href="#DejaVuSans-33"/>
    </g>
   </g>
   <g id="text_44">
    <!-- 3 -->
    <g style="fill: #ffffff" transform="translate(206.390179 593.930804)scale(0.1 -0.1)">
     <use xlink:href="#DejaVuSans-33"/>
    </g>
   </g>
   <g id="text_45">
    <!-- 3 -->
    <g style="fill: #ffffff" transform="translate(286.104464 593.930804)scale(0.1 -0.1)">
     <use xlink:href="#DejaVuSans-33"/>
    </g>
   </g>
   <g id="text_46">
    <!-- 3 -->
    <g style="fill: #ffffff" transform="translate(365.81875 593.930804)scale(0.1 -0.1)">
     <use xlink:href="#DejaVuSans-33"/>
    </g>
   </g>
   <g id="text_47">
    <!-- 3 -->
    <g style="fill: #ffffff" transform="translate(445.533036 593.930804)scale(0.1 -0.1)">
     <use xlink:href="#DejaVuSans-33"/>
    </g>
   </g>
   <g id="text_48">
    <!-- 3 -->
    <g style="fill: #ffffff" transform="translate(525.247321 593.930804)scale(0.1 -0.1)">
     <use xlink:href="#DejaVuSans-33"/>
    </g>
   </g>
   <g id="text_49">
    <!-- 3 -->
    <g style="fill: #ffffff" transform="translate(604.961607 593.930804)scale(0.1 -0.1)">
     <use xlink:href="#DejaVuSans-33"/>
    </g>
   </g>
   <g id="text_50">
    <!-- Chebyshev-Distanz auf Koordinatengitter -->
    <g transform="translate(245.499375 80.4)scale(0.12 -0.12)">
     <defs>
      <path id="DejaVuSans-43" d="M 4122 4306 
L 4122 3641 
Q 3803 3938 3442 4084 
Q 3081 4231 2675 4231 
Q 1875 4231 1450 3742 
Q 1025 3253 1025 2328 
Q 1025 1406 1450 917 
Q 1875 428 2675 428 
Q 3081 428 3442 575 
Q 3803 722 4122 1019 
L 4122 359 
Q 3791 134 3420 21 
Q 3050 -91 2638 -91 
Q 1578 -91 968 557 
Q 359 1206 359 2328 
Q 359 3453 968 4101 
Q 1578 4750 2638 4750 
Q 3056 4750 3426 4639 
Q 3797 4528 4122 4306 
z
" transform="scale(0.015625)"/>
      <path id="DejaVuSans-68" d="M 3513 2113 
L 3513 0 
L 2938 0 
L 2938 2094 
Q 2938 2591 2744 2837 
Q 2550 3084 2163 3084 
Q 1697 3084 1428 2787 
Q 1159 2491 1159 1978 
L 1159 0 
L 581 0 
L 581 4863 
L 1159 4863 
L 1159 2956 
Q 1366 3272 1645 3428 
Q 1925 3584 2291 3584 
Q 2894 3584 3203 3211 
Q 3513 2838 3513 2113 
z
" transform="scale(0.015625)"/>
      <path id="DejaVuSans-65" d="M 3597 1894 
L 3597 1613 
L 953 1613 
Q 991 1019 1311 708 
Q 1631 397 2203 397 
Q 2534 397 2845 478 
Q 3156 559 3463 722 
L 3463 178 
Q 3153 47 2828 -22 
Q 2503 -91 2169 -91 
Q 1331 -91 842 396 
Q 353 884 353 1716 
Q 353 2575 817 3079 
Q 1281 3584 2069 3584 
Q 2775 3584 3186 3129 
Q 3597 2675 3597 1894 
z
M 3022 2063 
Q 3016 2534 2758 2815 
Q 2500 3097 2075 3097 
Q 1594 3097 1305 2825 
Q 1016 2553 972 2059 
L 3022 2063 
z
" transform="scale(0.015625)"/>
      <path id="DejaVuSans-62" d="M 3116 1747 
Q 3116 2381 2855 2742 
Q 2594 3103 2138 3103 
Q 1681 3103 1420 2742 
Q 1159 2381 1159 1747 
Q 1159 1113 1420 752 
Q 1681 391 2138 391 
Q 2594 391 2855 752 
Q 3116 1113 3116 1747 
z
M 1159 2969 
Q 1341 3281 1617 3432 
Q 1894 3584 2278 3584 
Q 2916 3584 3314 3078 
Q 3713 2572 3713 1747 
Q 3713 922 3314 415 
Q 2916 -91 2278 -91 
Q 1894 -91 1617 61 
Q 1341 213 1159 525 
L 1159 0 
L 581 0 
L 581 4863 
L 1159 4863 
L 1159 2969 
z
" transform="scale(0.015625)"/>
      <path id="DejaVuSans-79" d="M 2059 -325 
Q 1816 -950 1584 -1140 
Q 1353 -1331 966 -1331 
L 506 -1331 
L 506 -850 
L 844 -850 
Q 1081 -850 1212 -737 
Q 1344 -625 1503 -206 
L 1606 56 
L 191 3500 
L 800 3500 
L 1894 763 
L 2988 3500 
L 3597 3500 
L 2059 -325 
z
" transform="scale(0.015625)"/>
      <path id="DejaVuSans-73" d="M 2834 3397 
L 2834 2853 
Q 2591 2978 2328 3040 
Q 2066 3103 1784 3103 
Q 1356 3103 1142 2972 
Q 928 2841 928 2578 
Q 928 2378 1081 2264 
Q 1234 2150 1697 2047 
L 1894 2003 
Q 2506 1872 2764 1633 
Q 3022 1394 3022 966 
Q 3022 478 2636 193 
Q 2250 -91 1575 -91 
Q 1294 -91 989 -36 
Q 684 19 347 128 
L 347 722 
Q 666 556 975 473 
Q 1284 391 1588 391 
Q 1994 391 2212 530 
Q 2431 669 2431 922 
Q 2431 1156 2273 1281 
Q 2116 1406 1581 1522 
L 1381 1569 
Q 847 1681 609 1914 
Q 372 2147 372 2553 
Q 372 3047 722 3315 
Q 1072 3584 1716 3584 
Q 2034 3584 2315 3537 
Q 2597 3491 2834 3397 
z
" transform="scale(0.015625)"/>
      <path id="DejaVuSans-76" d="M 191 3500 
L 800 3500 
L 1894 563 
L 2988 3500 
L 3597 3500 
L 2284 0 
L 1503 0 
L 191 3500 
z
" transform="scale(0.015625)"/>
      <path id="DejaVuSans-2d" d="M 313 2009 
L 1997 2009 
L 1997 1497 
L 313 1497 
L 313 2009 
z
" transform="scale(0.015625)"/>
      <path id="DejaVuSans-44" d="M 1259 4147 
L 1259 519 
L 2022 519 
Q 2988 519 3436 956 
Q 3884 1394 3884 2338 
Q 3884 3275 3436 3711 
Q 2988 4147 2022 4147 
L 1259 4147 
z
M 628 4666 
L 1925 4666 
Q 3281 4666 3915 4102 
Q 4550 3538 4550 2338 
Q 4550 1131 3912 565 
Q 3275 0 1925 0 
L 628 0 
L 628 4666 
z
" transform="scale(0.015625)"/>
      <path id="DejaVuSans-69" d="M 603 3500 
L 1178 3500 
L 1178 0 
L 603 0 
L 603 3500 
z
M 603 4863 
L 1178 4863 
L 1178 4134 
L 603 4134 
L 603 4863 
z
" transform="scale(0.015625)"/>
      <path id="DejaVuSans-74" d="M 1172 4494 
L 1172 3500 
L 2356 3500 
L 2356 3053 
L 1172 3053 
L 1172 1153 
Q 1172 725 1289 603 
Q 1406 481 1766 481 
L 2356 481 
L 2356 0 
L 1766 0 
Q 1100 0 847 248 
Q 594 497 594 1153 
L 594 3053 
L 172 3053 
L 172 3500 
L 594 3500 
L 594 4494 
L 1172 4494 
z
" transform="scale(0.015625)"/>
      <path id="DejaVuSans-61" d="M 2194 1759 
Q 1497 1759 1228 1600 
Q 959 1441 959 1056 
Q 959 750 1161 570 
Q 1363 391 1709 391 
Q 2188 391 2477 730 
Q 2766 1069 2766 1631 
L 2766 1759 
L 2194 1759 
z
M 3341 1997 
L 3341 0 
L 2766 0 
L 2766 531 
Q 2569 213 2275 61 
Q 1981 -91 1556 -91 
Q 1019 -91 701 211 
Q 384 513 384 1019 
Q 384 1609 779 1909 
Q 1175 2209 1959 2209 
L 2766 2209 
L 2766 2266 
Q 2766 2663 2505 2880 
Q 2244 3097 1772 3097 
Q 1472 3097 1187 3025 
Q 903 2953 641 2809 
L 641 3341 
Q 956 3463 1253 3523 
Q 1550 3584 1831 3584 
Q 2591 3584 2966 3190 
Q 3341 2797 3341 1997 
z
" transform="scale(0.015625)"/>
      <path id="DejaVuSans-6e" d="M 3513 2113 
L 3513 0 
L 2938 0 
L 2938 2094 
Q 2938 2591 2744 2837 
Q 2550 3084 2163 3084 
Q 1697 3084 1428 2787 
Q 1159 2491 1159 1978 
L 1159 0 
L 581 0 
L 581 3500 
L 1159 3500 
L 1159 2956 
Q 1366 3272 1645 3428 
Q 1925 3584 2291 3584 
Q 2894 3584 3203 3211 
Q 3513 2838 3513 2113 
z
" transform="scale(0.015625)"/>
      <path id="DejaVuSans-7a" d="M 353 3500 
L 3084 3500 
L 3084 2975 
L 922 459 
L 3084 459 
L 3084 0 
L 275 0 
L 275 525 
L 2438 3041 
L 353 3041 
L 353 3500 
z
" transform="scale(0.015625)"/>
      <path id="DejaVuSans-20" transform="scale(0.015625)"/>
      <path id="DejaVuSans-75" d="M 544 1381 
L 544 3500 
L 1119 3500 
L 1119 1403 
Q 1119 906 1312 657 
Q 1506 409 1894 409 
Q 2359 409 2629 706 
Q 2900 1003 2900 1516 
L 2900 3500 
L 3475 3500 
L 3475 0 
L 2900 0 
L 2900 538 
Q 2691 219 2414 64 
Q 2138 -91 1772 -91 
Q 1169 -91 856 284 
Q 544 659 544 1381 
z
M 1991 3584 
L 1991 3584 
z
" transform="scale(0.015625)"/>
      <path id="DejaVuSans-66" d="M 2375 4863 
L 2375 4384 
L 1825 4384 
Q 1516 4384 1395 4259 
Q 1275 4134 1275 3809 
L 1275 3500 
L 2222 3500 
L 2222 3053 
L 1275 3053 
L 1275 0 
L 697 0 
L 697 3053 
L 147 3053 
L 147 3500 
L 697 3500 
L 697 3744 
Q 697 4328 969 4595 
Q 1241 4863 1831 4863 
L 2375 4863 
z
" transform="scale(0.015625)"/>
      <path id="DejaVuSans-4b" d="M 628 4666 
L 1259 4666 
L 1259 2694 
L 3353 4666 
L 4166 4666 
L 1850 2491 
L 4331 0 
L 3500 0 
L 1259 2247 
L 1259 0 
L 628 0 
L 628 4666 
z
" transform="scale(0.015625)"/>
      <path id="DejaVuSans-6f" d="M 1959 3097 
Q 1497 3097 1228 2736 
Q 959 2375 959 1747 
Q 959 1119 1226 758 
Q 1494 397 1959 397 
Q 2419 397 2687 759 
Q 2956 1122 2956 1747 
Q 2956 2369 2687 2733 
Q 2419 3097 1959 3097 
z
M 1959 3584 
Q 2709 3584 3137 3096 
Q 3566 2609 3566 1747 
Q 3566 888 3137 398 
Q 2709 -91 1959 -91 
Q 1206 -91 779 398 
Q 353 888 353 1747 
Q 353 2609 779 3096 
Q 1206 3584 1959 3584 
z
" transform="scale(0.015625)"/>
      <path id="DejaVuSans-72" d="M 2631 2963 
Q 2534 3019 2420 3045 
Q 2306 3072 2169 3072 
Q 1681 3072 1420 2755 
Q 1159 2438 1159 1844 
L 1159 0 
L 581 0 
L 581 3500 
L 1159 3500 
L 1159 2956 
Q 1341 3275 1631 3429 
Q 1922 3584 2338 3584 
Q 2397 3584 2469 3576 
Q 2541 3569 2628 3553 
L 2631 2963 
z
" transform="scale(0.015625)"/>
      <path id="DejaVuSans-64" d="M 2906 2969 
L 2906 4863 
L 3481 4863 
L 3481 0 
L 2906 0 
L 2906 525 
Q 2725 213 2448 61 
Q 2172 -91 1784 -91 
Q 1150 -91 751 415 
Q 353 922 353 1747 
Q 353 2572 751 3078 
Q 1150 3584 1784 3584 
Q 2172 3584 2448 3432 
Q 2725 3281 2906 2969 
z
M 947 1747 
Q 947 1113 1208 752 
Q 1469 391 1925 391 
Q 2381 391 2643 752 
Q 2906 1113 2906 1747 
Q 2906 2381 2643 2742 
Q 2381 3103 1925 3103 
Q 1469 3103 1208 2742 
Q 947 2381 947 1747 
z
" transform="scale(0.015625)"/>
      <path id="DejaVuSans-67" d="M 2906 1791 
Q 2906 2416 2648 2759 
Q 2391 3103 1925 3103 
Q 1463 3103 1205 2759 
Q 947 2416 947 1791 
Q 947 1169 1205 825 
Q 1463 481 1925 481 
Q 2391 481 2648 825 
Q 2906 1169 2906 1791 
z
M 3481 434 
Q 3481 -459 3084 -895 
Q 2688 -1331 1869 -1331 
Q 1566 -1331 1297 -1286 
Q 1028 -1241 775 -1147 
L 775 -588 
Q 1028 -725 1275 -790 
Q 1522 -856 1778 -856 
Q 2344 -856 2625 -561 
Q 2906 -266 2906 331 
L 2906 616 
Q 2728 306 2450 153 
Q 2172 0 1784 0 
Q 1141 0 747 490 
Q 353 981 353 1791 
Q 353 2603 747 3093 
Q 1141 3584 1784 3584 
Q 2172 3584 2450 3431 
Q 2728 3278 2906 2969 
L 2906 3500 
L 3481 3500 
L 3481 434 
z
" transform="scale(0.015625)"/>
     </defs>
     <use xlink:href="#DejaVuSans-43"/>
     <use xlink:href="#DejaVuSans-68" x="69.824219"/>
     <use xlink:href="#DejaVuSans-65" x="133.203125"/>
     <use xlink:href="#DejaVuSans-62" x="194.726562"/>
     <use xlink:href="#DejaVuSans-79" x="258.203125"/>
     <use xlink:href="#DejaVuSans-73" x="317.382812"/>
     <use xlink:href="#DejaVuSans-68" x="369.482422"/>
     <use xlink:href="#DejaVuSans-65" x="432.861328"/>
     <use xlink:href="#DejaVuSans-76" x="494.384766"/>
     <use xlink:href="#DejaVuSans-2d" x="550.939453"/>
     <use xlink:href="#DejaVuSans-44" x="587.023438"/>
     <use xlink:href="#DejaVuSans-69" x="664.025391"/>
     <use xlink:href="#DejaVuSans-73" x="691.808594"/>
     <use xlink:href="#DejaVuSans-74" x="743.908203"/>
     <use xlink:href="#DejaVuSans-61" x="783.117188"/>
     <use xlink:href="#DejaVuSans-6e" x="844.396484"/>
     <use xlink:href="#DejaVuSans-7a" x="907.775391"/>
     <use xlink:href="#DejaVuSans-20" x="960.265625"/>
     <use xlink:href="#DejaVuSans-61" x="992.052734"/>
     <use xlink:href="#DejaVuSans-75" x="1053.332031"/>
     <use xlink:href="#DejaVuSans-66" x="1116.710938"/>
     <use xlink:href="#DejaVuSans-20" x="1151.916016"/>
     <use xlink:href="#DejaVuSans-4b" x="1183.703125"/>
     <use xlink:href="#DejaVuSans-6f" x="1244.279297"/>
     <use xlink:href="#DejaVuSans-6f" x="1305.460938"/>
     <use xlink:href="#DejaVuSans-72" x="1366.642578"/>
     <use xlink:href="#DejaVuSans-64" x="1406.005859"/>
     <use xlink:href="#DejaVuSans-69" x="1469.482422"/>
     <use xlink:href="#DejaVuSans-6e" x="1497.265625"/>
     <use xlink:href="#DejaVuSans-61" x="1560.644531"/>
     <use xlink:href="#DejaVuSans-74" x="1621.923828"/>
     <use xlink:href="#DejaVuSans-65" x="1661.132812"/>
     <use xlink:href="#DejaVuSans-6e" x="1722.65625"/>
     <use xlink:href="#DejaVuSans-67" x="1786.035156"/>
     <use xlink:href="#DejaVuSans-69" x="1849.511719"/>
     <use xlink:href="#DejaVuSans-74" x="1877.294922"/>
     <use xlink:href="#DejaVuSans-74" x="1916.503906"/>
     <use xlink:href="#DejaVuSans-65" x="1955.712891"/>
     <use xlink:href="#DejaVuSans-72" x="2017.236328"/>
    </g>
   </g>
  </g>
 </g>
 <defs>
  <clipPath id="pe0ce42e027">
   <rect x="90" y="86.4" width="558" height="543.6"/>
  </clipPath>
 </defs>
</svg>
