<?xml version="1.0" encoding="utf-8" standalone="no"?>
<!DOCTYPE svg PUBLIC "-//W3C//DTD SVG 1.1//EN"
  "http://www.w3.org/Graphics/SVG/1.1/DTD/svg11.dtd">
<svg xmlns:xlink="http://www.w3.org/1999/xlink" width="2160pt" height="1080pt" viewBox="0 0 2160 1080" xmlns="http://www.w3.org/2000/svg" version="1.1">
 <metadata>
  <rdf:RDF xmlns:dc="http://purl.org/dc/elements/1.1/" xmlns:cc="http://creativecommons.org/ns#" xmlns:rdf="http://www.w3.org/1999/02/22-rdf-syntax-ns#">
   <cc:Work>
    <dc:type rdf:resource="http://purl.org/dc/dcmitype/StillImage"/>
    <dc:date>2022-04-25T01:13:15.550603</dc:date>
    <dc:format>image/svg+xml</dc:format>
    <dc:creator>
     <cc:Agent>
      <dc:title>Matplotlib v3.5.0, https://matplotlib.org/</dc:title>
     </cc:Agent>
    </dc:creator>
   </cc:Work>
  </rdf:RDF>
 </metadata>
 <defs>
  <style type="text/css">*{stroke-linejoin: round; stroke-linecap: butt}</style>
 </defs>
 <g id="figure_1">
  <g id="patch_1">
   <path d="M 0 1080 
L 2160 1080 
L 2160 0 
L 0 0 
L 0 1080 
z
" style="fill: none"/>
  </g>
  <g id="axes_1">
   <g id="patch_2">
    <path d="M 270 945 
L 1030.909091 945 
L 1030.909091 129.6 
L 270 129.6 
z
" style="fill: #ffffff"/>
   </g>
   <g id="matplotlib.axis_1">
    <g id="xtick_1">
     <g id="line2d_1">
      <defs>
       <path id="m7d25a46a6d" d="M 0 0 
L 0 3.5 
" style="stroke: #000000; stroke-width: 0.8"/>
      </defs>
      <g>
       <use xlink:href="#m7d25a46a6d" x="304.586777" y="945" style="stroke: #000000; stroke-width: 0.8"/>
      </g>
     </g>
     <g id="text_1">
      <!-- 0 -->
      <g transform="translate(301.405527 959.598438)scale(0.1 -0.1)">
       <defs>
        <path id="DejaVuSans-30" d="M 2034 4250 
Q 1547 4250 1301 3770 
Q 1056 3291 1056 2328 
Q 1056 1369 1301 889 
Q 1547 409 2034 409 
Q 2525 409 2770 889 
Q 3016 1369 3016 2328 
Q 3016 3291 2770 3770 
Q 2525 4250 2034 4250 
z
M 2034 4750 
Q 2819 4750 3233 4129 
Q 3647 3509 3647 2328 
Q 3647 1150 3233 529 
Q 2819 -91 2034 -91 
Q 1250 -91 836 529 
Q 422 1150 422 2328 
Q 422 3509 836 4129 
Q 1250 4750 2034 4750 
z
" transform="scale(0.015625)"/>
       </defs>
       <use xlink:href="#DejaVuSans-30"/>
      </g>
     </g>
    </g>
    <g id="xtick_2">
     <g id="line2d_2">
      <g>
       <use xlink:href="#m7d25a46a6d" x="477.520661" y="945" style="stroke: #000000; stroke-width: 0.8"/>
      </g>
     </g>
     <g id="text_2">
      <!-- 1 -->
      <g transform="translate(474.339411 959.598438)scale(0.1 -0.1)">
       <defs>
        <path id="DejaVuSans-31" d="M 794 531 
L 1825 531 
L 1825 4091 
L 703 3866 
L 703 4441 
L 1819 4666 
L 2450 4666 
L 2450 531 
L 3481 531 
L 3481 0 
L 794 0 
L 794 531 
z
" transform="scale(0.015625)"/>
       </defs>
       <use xlink:href="#DejaVuSans-31"/>
      </g>
     </g>
    </g>
    <g id="xtick_3">
     <g id="line2d_3">
      <g>
       <use xlink:href="#m7d25a46a6d" x="650.454545" y="945" style="stroke: #000000; stroke-width: 0.8"/>
      </g>
     </g>
     <g id="text_3">
      <!-- 2 -->
      <g transform="translate(647.273295 959.598438)scale(0.1 -0.1)">
       <defs>
        <path id="DejaVuSans-32" d="M 1228 531 
L 3431 531 
L 3431 0 
L 469 0 
L 469 531 
Q 828 903 1448 1529 
Q 2069 2156 2228 2338 
Q 2531 2678 2651 2914 
Q 2772 3150 2772 3378 
Q 2772 3750 2511 3984 
Q 2250 4219 1831 4219 
Q 1534 4219 1204 4116 
Q 875 4013 500 3803 
L 500 4441 
Q 881 4594 1212 4672 
Q 1544 4750 1819 4750 
Q 2544 4750 2975 4387 
Q 3406 4025 3406 3419 
Q 3406 3131 3298 2873 
Q 3191 2616 2906 2266 
Q 2828 2175 2409 1742 
Q 1991 1309 1228 531 
z
" transform="scale(0.015625)"/>
       </defs>
       <use xlink:href="#DejaVuSans-32"/>
      </g>
     </g>
    </g>
    <g id="xtick_4">
     <g id="line2d_4">
      <g>
       <use xlink:href="#m7d25a46a6d" x="823.38843" y="945" style="stroke: #000000; stroke-width: 0.8"/>
      </g>
     </g>
     <g id="text_4">
      <!-- 3 -->
      <g transform="translate(820.20718 959.598438)scale(0.1 -0.1)">
       <defs>
        <path id="DejaVuSans-33" d="M 2597 2516 
Q 3050 2419 3304 2112 
Q 3559 1806 3559 1356 
Q 3559 666 3084 287 
Q 2609 -91 1734 -91 
Q 1441 -91 1130 -33 
Q 819 25 488 141 
L 488 750 
Q 750 597 1062 519 
Q 1375 441 1716 441 
Q 2309 441 2620 675 
Q 2931 909 2931 1356 
Q 2931 1769 2642 2001 
Q 2353 2234 1838 2234 
L 1294 2234 
L 1294 2753 
L 1863 2753 
Q 2328 2753 2575 2939 
Q 2822 3125 2822 3475 
Q 2822 3834 2567 4026 
Q 2313 4219 1838 4219 
Q 1578 4219 1281 4162 
Q 984 4106 628 3988 
L 628 4550 
Q 988 4650 1302 4700 
Q 1616 4750 1894 4750 
Q 2613 4750 3031 4423 
Q 3450 4097 3450 3541 
Q 3450 3153 3228 2886 
Q 3006 2619 2597 2516 
z
" transform="scale(0.015625)"/>
       </defs>
       <use xlink:href="#DejaVuSans-33"/>
      </g>
     </g>
    </g>
    <g id="xtick_5">
     <g id="line2d_5">
      <g>
       <use xlink:href="#m7d25a46a6d" x="996.322314" y="945" style="stroke: #000000; stroke-width: 0.8"/>
      </g>
     </g>
     <g id="text_5">
      <!-- 4 -->
      <g transform="translate(993.141064 959.598438)scale(0.1 -0.1)">
       <defs>
        <path id="DejaVuSans-34" d="M 2419 4116 
L 825 1625 
L 2419 1625 
L 2419 4116 
z
M 2253 4666 
L 3047 4666 
L 3047 1625 
L 3713 1625 
L 3713 1100 
L 3047 1100 
L 3047 0 
L 2419 0 
L 2419 1100 
L 313 1100 
L 313 1709 
L 2253 4666 
z
" transform="scale(0.015625)"/>
       </defs>
       <use xlink:href="#DejaVuSans-34"/>
      </g>
     </g>
    </g>
   </g>
   <g id="matplotlib.axis_2">
    <g id="ytick_1">
     <g id="line2d_6">
      <defs>
       <path id="md68f50925b" d="M 0 0 
L -3.5 0 
" style="stroke: #000000; stroke-width: 0.8"/>
      </defs>
      <g>
       <use xlink:href="#md68f50925b" x="270" y="833.809091" style="stroke: #000000; stroke-width: 0.8"/>
      </g>
     </g>
     <g id="text_6">
      <!-- 5 -->
      <g transform="translate(256.6375 837.60831)scale(0.1 -0.1)">
       <defs>
        <path id="DejaVuSans-35" d="M 691 4666 
L 3169 4666 
L 3169 4134 
L 1269 4134 
L 1269 2991 
Q 1406 3038 1543 3061 
Q 1681 3084 1819 3084 
Q 2600 3084 3056 2656 
Q 3513 2228 3513 1497 
Q 3513 744 3044 326 
Q 2575 -91 1722 -91 
Q 1428 -91 1123 -41 
Q 819 9 494 109 
L 494 744 
Q 775 591 1075 516 
Q 1375 441 1709 441 
Q 2250 441 2565 725 
Q 2881 1009 2881 1497 
Q 2881 1984 2565 2268 
Q 2250 2553 1709 2553 
Q 1456 2553 1204 2497 
Q 953 2441 691 2322 
L 691 4666 
z
" transform="scale(0.015625)"/>
       </defs>
       <use xlink:href="#DejaVuSans-35"/>
      </g>
     </g>
    </g>
    <g id="ytick_2">
     <g id="line2d_7">
      <g>
       <use xlink:href="#md68f50925b" x="270" y="710.263636" style="stroke: #000000; stroke-width: 0.8"/>
      </g>
     </g>
     <g id="text_7">
      <!-- 10 -->
      <g transform="translate(250.275 714.062855)scale(0.1 -0.1)">
       <use xlink:href="#DejaVuSans-31"/>
       <use xlink:href="#DejaVuSans-30" x="63.623047"/>
      </g>
     </g>
    </g>
    <g id="ytick_3">
     <g id="line2d_8">
      <g>
       <use xlink:href="#md68f50925b" x="270" y="586.718182" style="stroke: #000000; stroke-width: 0.8"/>
      </g>
     </g>
     <g id="text_8">
      <!-- 15 -->
      <g transform="translate(250.275 590.517401)scale(0.1 -0.1)">
       <use xlink:href="#DejaVuSans-31"/>
       <use xlink:href="#DejaVuSans-35" x="63.623047"/>
      </g>
     </g>
    </g>
    <g id="ytick_4">
     <g id="line2d_9">
      <g>
       <use xlink:href="#md68f50925b" x="270" y="463.172727" style="stroke: #000000; stroke-width: 0.8"/>
      </g>
     </g>
     <g id="text_9">
      <!-- 20 -->
      <g transform="translate(250.275 466.971946)scale(0.1 -0.1)">
       <use xlink:href="#DejaVuSans-32"/>
       <use xlink:href="#DejaVuSans-30" x="63.623047"/>
      </g>
     </g>
    </g>
    <g id="ytick_5">
     <g id="line2d_10">
      <g>
       <use xlink:href="#md68f50925b" x="270" y="339.627273" style="stroke: #000000; stroke-width: 0.8"/>
      </g>
     </g>
     <g id="text_10">
      <!-- 25 -->
      <g transform="translate(250.275 343.426491)scale(0.1 -0.1)">
       <use xlink:href="#DejaVuSans-32"/>
       <use xlink:href="#DejaVuSans-35" x="63.623047"/>
      </g>
     </g>
    </g>
    <g id="ytick_6">
     <g id="line2d_11">
      <g>
       <use xlink:href="#md68f50925b" x="270" y="216.081818" style="stroke: #000000; stroke-width: 0.8"/>
      </g>
     </g>
     <g id="text_11">
      <!-- 30 -->
      <g transform="translate(250.275 219.881037)scale(0.1 -0.1)">
       <use xlink:href="#DejaVuSans-33"/>
       <use xlink:href="#DejaVuSans-30" x="63.623047"/>
      </g>
     </g>
    </g>
   </g>
   <g id="line2d_12">
    <path d="M 304.586777 907.936364 
L 477.520661 858.518182 
L 650.454545 759.681818 
L 823.38843 562.009091 
L 996.322314 166.663636 
" clip-path="url(#p9e9c6fb00b)" style="fill: none; stroke-dasharray: 5.55,2.4; stroke-dashoffset: 0; stroke: #1f77b4; stroke-width: 1.5"/>
    <defs>
     <path id="mddedc5275f" d="M 0 3 
C 0.795609 3 1.55874 2.683901 2.12132 2.12132 
C 2.683901 1.55874 3 0.795609 3 0 
C 3 -0.795609 2.683901 -1.55874 2.12132 -2.12132 
C 1.55874 -2.683901 0.795609 -3 0 -3 
C -0.795609 -3 -1.55874 -2.683901 -2.12132 -2.12132 
C -2.683901 -1.55874 -3 -0.795609 -3 0 
C -3 0.795609 -2.683901 1.55874 -2.12132 2.12132 
C -1.55874 2.683901 -0.795609 3 0 3 
z
" style="stroke: #1f77b4"/>
    </defs>
    <g clip-path="url(#p9e9c6fb00b)">
     <use xlink:href="#mddedc5275f" x="304.586777" y="907.936364" style="fill: #1f77b4; stroke: #1f77b4"/>
     <use xlink:href="#mddedc5275f" x="477.520661" y="858.518182" style="fill: #1f77b4; stroke: #1f77b4"/>
     <use xlink:href="#mddedc5275f" x="650.454545" y="759.681818" style="fill: #1f77b4; stroke: #1f77b4"/>
     <use xlink:href="#mddedc5275f" x="823.38843" y="562.009091" style="fill: #1f77b4; stroke: #1f77b4"/>
     <use xlink:href="#mddedc5275f" x="996.322314" y="166.663636" style="fill: #1f77b4; stroke: #1f77b4"/>
    </g>
   </g>
   <g id="patch_3">
    <path d="M 270 945 
L 270 129.6 
" style="fill: none; stroke: #000000; stroke-width: 0.8; stroke-linejoin: miter; stroke-linecap: square"/>
   </g>
   <g id="patch_4">
    <path d="M 1030.909091 945 
L 1030.909091 129.6 
" style="fill: none; stroke: #000000; stroke-width: 0.8; stroke-linejoin: miter; stroke-linecap: square"/>
   </g>
   <g id="patch_5">
    <path d="M 270 945 
L 1030.909091 945 
" style="fill: none; stroke: #000000; stroke-width: 0.8; stroke-linejoin: miter; stroke-linecap: square"/>
   </g>
   <g id="patch_6">
    <path d="M 270 129.6 
L 1030.909091 129.6 
" style="fill: none; stroke: #000000; stroke-width: 0.8; stroke-linejoin: miter; stroke-linecap: square"/>
   </g>
   <g id="text_12">
    <!-- Volumen des Hyperwürfels nach Dimension für $d \leq 4$ -->
    <g transform="translate(492.114545 123.6)scale(0.12 -0.12)">
     <defs>
      <path id="DejaVuSans-56" d="M 1831 0 
L 50 4666 
L 709 4666 
L 2188 738 
L 3669 4666 
L 4325 4666 
L 2547 0 
L 1831 0 
z
" transform="scale(0.015625)"/>
      <path id="DejaVuSans-6f" d="M 1959 3097 
Q 1497 3097 1228 2736 
Q 959 2375 959 1747 
Q 959 1119 1226 758 
Q 1494 397 1959 397 
Q 2419 397 2687 759 
Q 2956 1122 2956 1747 
Q 2956 2369 2687 2733 
Q 2419 3097 1959 3097 
z
M 1959 3584 
Q 2709 3584 3137 3096 
Q 3566 2609 3566 1747 
Q 3566 888 3137 398 
Q 2709 -91 1959 -91 
Q 1206 -91 779 398 
Q 353 888 353 1747 
Q 353 2609 779 3096 
Q 1206 3584 1959 3584 
z
" transform="scale(0.015625)"/>
      <path id="DejaVuSans-6c" d="M 603 4863 
L 1178 4863 
L 1178 0 
L 603 0 
L 603 4863 
z
" transform="scale(0.015625)"/>
      <path id="DejaVuSans-75" d="M 544 1381 
L 544 3500 
L 1119 3500 
L 1119 1403 
Q 1119 906 1312 657 
Q 1506 409 1894 409 
Q 2359 409 2629 706 
Q 2900 1003 2900 1516 
L 2900 3500 
L 3475 3500 
L 3475 0 
L 2900 0 
L 2900 538 
Q 2691 219 2414 64 
Q 2138 -91 1772 -91 
Q 1169 -91 856 284 
Q 544 659 544 1381 
z
M 1991 3584 
L 1991 3584 
z
" transform="scale(0.015625)"/>
      <path id="DejaVuSans-6d" d="M 3328 2828 
Q 3544 3216 3844 3400 
Q 4144 3584 4550 3584 
Q 5097 3584 5394 3201 
Q 5691 2819 5691 2113 
L 5691 0 
L 5113 0 
L 5113 2094 
Q 5113 2597 4934 2840 
Q 4756 3084 4391 3084 
Q 3944 3084 3684 2787 
Q 3425 2491 3425 1978 
L 3425 0 
L 2847 0 
L 2847 2094 
Q 2847 2600 2669 2842 
Q 2491 3084 2119 3084 
Q 1678 3084 1418 2786 
Q 1159 2488 1159 1978 
L 1159 0 
L 581 0 
L 581 3500 
L 1159 3500 
L 1159 2956 
Q 1356 3278 1631 3431 
Q 1906 3584 2284 3584 
Q 2666 3584 2933 3390 
Q 3200 3197 3328 2828 
z
" transform="scale(0.015625)"/>
      <path id="DejaVuSans-65" d="M 3597 1894 
L 3597 1613 
L 953 1613 
Q 991 1019 1311 708 
Q 1631 397 2203 397 
Q 2534 397 2845 478 
Q 3156 559 3463 722 
L 3463 178 
Q 3153 47 2828 -22 
Q 2503 -91 2169 -91 
Q 1331 -91 842 396 
Q 353 884 353 1716 
Q 353 2575 817 3079 
Q 1281 3584 2069 3584 
Q 2775 3584 3186 3129 
Q 3597 2675 3597 1894 
z
M 3022 2063 
Q 3016 2534 2758 2815 
Q 2500 3097 2075 3097 
Q 1594 3097 1305 2825 
Q 1016 2553 972 2059 
L 3022 2063 
z
" transform="scale(0.015625)"/>
      <path id="DejaVuSans-6e" d="M 3513 2113 
L 3513 0 
L 2938 0 
L 2938 2094 
Q 2938 2591 2744 2837 
Q 2550 3084 2163 3084 
Q 1697 3084 1428 2787 
Q 1159 2491 1159 1978 
L 1159 0 
L 581 0 
L 581 3500 
L 1159 3500 
L 1159 2956 
Q 1366 3272 1645 3428 
Q 1925 3584 2291 3584 
Q 2894 3584 3203 3211 
Q 3513 2838 3513 2113 
z
" transform="scale(0.015625)"/>
      <path id="DejaVuSans-20" transform="scale(0.015625)"/>
      <path id="DejaVuSans-64" d="M 2906 2969 
L 2906 4863 
L 3481 4863 
L 3481 0 
L 2906 0 
L 2906 525 
Q 2725 213 2448 61 
Q 2172 -91 1784 -91 
Q 1150 -91 751 415 
Q 353 922 353 1747 
Q 353 2572 751 3078 
Q 1150 3584 1784 3584 
Q 2172 3584 2448 3432 
Q 2725 3281 2906 2969 
z
M 947 1747 
Q 947 1113 1208 752 
Q 1469 391 1925 391 
Q 2381 391 2643 752 
Q 2906 1113 2906 1747 
Q 2906 2381 2643 2742 
Q 2381 3103 1925 3103 
Q 1469 3103 1208 2742 
Q 947 2381 947 1747 
z
" transform="scale(0.015625)"/>
      <path id="DejaVuSans-73" d="M 2834 3397 
L 2834 2853 
Q 2591 2978 2328 3040 
Q 2066 3103 1784 3103 
Q 1356 3103 1142 2972 
Q 928 2841 928 2578 
Q 928 2378 1081 2264 
Q 1234 2150 1697 2047 
L 1894 2003 
Q 2506 1872 2764 1633 
Q 3022 1394 3022 966 
Q 3022 478 2636 193 
Q 2250 -91 1575 -91 
Q 1294 -91 989 -36 
Q 684 19 347 128 
L 347 722 
Q 666 556 975 473 
Q 1284 391 1588 391 
Q 1994 391 2212 530 
Q 2431 669 2431 922 
Q 2431 1156 2273 1281 
Q 2116 1406 1581 1522 
L 1381 1569 
Q 847 1681 609 1914 
Q 372 2147 372 2553 
Q 372 3047 722 3315 
Q 1072 3584 1716 3584 
Q 2034 3584 2315 3537 
Q 2597 3491 2834 3397 
z
" transform="scale(0.015625)"/>
      <path id="DejaVuSans-48" d="M 628 4666 
L 1259 4666 
L 1259 2753 
L 3553 2753 
L 3553 4666 
L 4184 4666 
L 4184 0 
L 3553 0 
L 3553 2222 
L 1259 2222 
L 1259 0 
L 628 0 
L 628 4666 
z
" transform="scale(0.015625)"/>
      <path id="DejaVuSans-79" d="M 2059 -325 
Q 1816 -950 1584 -1140 
Q 1353 -1331 966 -1331 
L 506 -1331 
L 506 -850 
L 844 -850 
Q 1081 -850 1212 -737 
Q 1344 -625 1503 -206 
L 1606 56 
L 191 3500 
L 800 3500 
L 1894 763 
L 2988 3500 
L 3597 3500 
L 2059 -325 
z
" transform="scale(0.015625)"/>
      <path id="DejaVuSans-70" d="M 1159 525 
L 1159 -1331 
L 581 -1331 
L 581 3500 
L 1159 3500 
L 1159 2969 
Q 1341 3281 1617 3432 
Q 1894 3584 2278 3584 
Q 2916 3584 3314 3078 
Q 3713 2572 3713 1747 
Q 3713 922 3314 415 
Q 2916 -91 2278 -91 
Q 1894 -91 1617 61 
Q 1341 213 1159 525 
z
M 3116 1747 
Q 3116 2381 2855 2742 
Q 2594 3103 2138 3103 
Q 1681 3103 1420 2742 
Q 1159 2381 1159 1747 
Q 1159 1113 1420 752 
Q 1681 391 2138 391 
Q 2594 391 2855 752 
Q 3116 1113 3116 1747 
z
" transform="scale(0.015625)"/>
      <path id="DejaVuSans-72" d="M 2631 2963 
Q 2534 3019 2420 3045 
Q 2306 3072 2169 3072 
Q 1681 3072 1420 2755 
Q 1159 2438 1159 1844 
L 1159 0 
L 581 0 
L 581 3500 
L 1159 3500 
L 1159 2956 
Q 1341 3275 1631 3429 
Q 1922 3584 2338 3584 
Q 2397 3584 2469 3576 
Q 2541 3569 2628 3553 
L 2631 2963 
z
" transform="scale(0.015625)"/>
      <path id="DejaVuSans-77" d="M 269 3500 
L 844 3500 
L 1563 769 
L 2278 3500 
L 2956 3500 
L 3675 769 
L 4391 3500 
L 4966 3500 
L 4050 0 
L 3372 0 
L 2619 2869 
L 1863 0 
L 1184 0 
L 269 3500 
z
" transform="scale(0.015625)"/>
      <path id="DejaVuSans-fc" d="M 544 1381 
L 544 3500 
L 1119 3500 
L 1119 1403 
Q 1119 906 1312 657 
Q 1506 409 1894 409 
Q 2359 409 2629 706 
Q 2900 1003 2900 1516 
L 2900 3500 
L 3475 3500 
L 3475 0 
L 2900 0 
L 2900 538 
Q 2691 219 2414 64 
Q 2138 -91 1772 -91 
Q 1169 -91 856 284 
Q 544 659 544 1381 
z
M 1991 3584 
L 1991 3584 
z
M 2278 4850 
L 2912 4850 
L 2912 4219 
L 2278 4219 
L 2278 4850 
z
M 1056 4850 
L 1690 4850 
L 1690 4219 
L 1056 4219 
L 1056 4850 
z
" transform="scale(0.015625)"/>
      <path id="DejaVuSans-66" d="M 2375 4863 
L 2375 4384 
L 1825 4384 
Q 1516 4384 1395 4259 
Q 1275 4134 1275 3809 
L 1275 3500 
L 2222 3500 
L 2222 3053 
L 1275 3053 
L 1275 0 
L 697 0 
L 697 3053 
L 147 3053 
L 147 3500 
L 697 3500 
L 697 3744 
Q 697 4328 969 4595 
Q 1241 4863 1831 4863 
L 2375 4863 
z
" transform="scale(0.015625)"/>
      <path id="DejaVuSans-61" d="M 2194 1759 
Q 1497 1759 1228 1600 
Q 959 1441 959 1056 
Q 959 750 1161 570 
Q 1363 391 1709 391 
Q 2188 391 2477 730 
Q 2766 1069 2766 1631 
L 2766 1759 
L 2194 1759 
z
M 3341 1997 
L 3341 0 
L 2766 0 
L 2766 531 
Q 2569 213 2275 61 
Q 1981 -91 1556 -91 
Q 1019 -91 701 211 
Q 384 513 384 1019 
Q 384 1609 779 1909 
Q 1175 2209 1959 2209 
L 2766 2209 
L 2766 2266 
Q 2766 2663 2505 2880 
Q 2244 3097 1772 3097 
Q 1472 3097 1187 3025 
Q 903 2953 641 2809 
L 641 3341 
Q 956 3463 1253 3523 
Q 1550 3584 1831 3584 
Q 2591 3584 2966 3190 
Q 3341 2797 3341 1997 
z
" transform="scale(0.015625)"/>
      <path id="DejaVuSans-63" d="M 3122 3366 
L 3122 2828 
Q 2878 2963 2633 3030 
Q 2388 3097 2138 3097 
Q 1578 3097 1268 2742 
Q 959 2388 959 1747 
Q 959 1106 1268 751 
Q 1578 397 2138 397 
Q 2388 397 2633 464 
Q 2878 531 3122 666 
L 3122 134 
Q 2881 22 2623 -34 
Q 2366 -91 2075 -91 
Q 1284 -91 818 406 
Q 353 903 353 1747 
Q 353 2603 823 3093 
Q 1294 3584 2113 3584 
Q 2378 3584 2631 3529 
Q 2884 3475 3122 3366 
z
" transform="scale(0.015625)"/>
      <path id="DejaVuSans-68" d="M 3513 2113 
L 3513 0 
L 2938 0 
L 2938 2094 
Q 2938 2591 2744 2837 
Q 2550 3084 2163 3084 
Q 1697 3084 1428 2787 
Q 1159 2491 1159 1978 
L 1159 0 
L 581 0 
L 581 4863 
L 1159 4863 
L 1159 2956 
Q 1366 3272 1645 3428 
Q 1925 3584 2291 3584 
Q 2894 3584 3203 3211 
Q 3513 2838 3513 2113 
z
" transform="scale(0.015625)"/>
      <path id="DejaVuSans-44" d="M 1259 4147 
L 1259 519 
L 2022 519 
Q 2988 519 3436 956 
Q 3884 1394 3884 2338 
Q 3884 3275 3436 3711 
Q 2988 4147 2022 4147 
L 1259 4147 
z
M 628 4666 
L 1925 4666 
Q 3281 4666 3915 4102 
Q 4550 3538 4550 2338 
Q 4550 1131 3912 565 
Q 3275 0 1925 0 
L 628 0 
L 628 4666 
z
" transform="scale(0.015625)"/>
      <path id="DejaVuSans-69" d="M 603 3500 
L 1178 3500 
L 1178 0 
L 603 0 
L 603 3500 
z
M 603 4863 
L 1178 4863 
L 1178 4134 
L 603 4134 
L 603 4863 
z
" transform="scale(0.015625)"/>
      <path id="DejaVuSans-Oblique-64" d="M 2675 525 
Q 2444 222 2128 65 
Q 1813 -91 1428 -91 
Q 903 -91 598 267 
Q 294 625 294 1247 
Q 294 1766 478 2236 
Q 663 2706 1013 3078 
Q 1244 3325 1534 3454 
Q 1825 3584 2144 3584 
Q 2481 3584 2739 3421 
Q 2997 3259 3138 2956 
L 3513 4863 
L 4091 4863 
L 3144 0 
L 2566 0 
L 2675 525 
z
M 891 1350 
Q 891 897 1095 644 
Q 1300 391 1663 391 
Q 1931 391 2161 520 
Q 2391 650 2566 903 
Q 2750 1166 2856 1509 
Q 2963 1853 2963 2188 
Q 2963 2622 2758 2865 
Q 2553 3109 2194 3109 
Q 1922 3109 1687 2981 
Q 1453 2853 1288 2613 
Q 1106 2353 998 2009 
Q 891 1666 891 1350 
z
" transform="scale(0.015625)"/>
      <path id="DejaVuSans-2264" d="M 4684 3175 
L 1684 2309 
L 4684 1453 
L 4684 897 
L 678 2047 
L 678 2578 
L 4684 3725 
L 4684 3175 
z
M 678 531 
L 4684 531 
L 4684 0 
L 678 0 
L 678 531 
z
" transform="scale(0.015625)"/>
     </defs>
     <use xlink:href="#DejaVuSans-56" transform="translate(0 0.015625)"/>
     <use xlink:href="#DejaVuSans-6f" transform="translate(68.408203 0.015625)"/>
     <use xlink:href="#DejaVuSans-6c" transform="translate(129.589844 0.015625)"/>
     <use xlink:href="#DejaVuSans-75" transform="translate(157.373047 0.015625)"/>
     <use xlink:href="#DejaVuSans-6d" transform="translate(220.751953 0.015625)"/>
     <use xlink:href="#DejaVuSans-65" transform="translate(318.164062 0.015625)"/>
     <use xlink:href="#DejaVuSans-6e" transform="translate(379.6875 0.015625)"/>
     <use xlink:href="#DejaVuSans-20" transform="translate(443.066406 0.015625)"/>
     <use xlink:href="#DejaVuSans-64" transform="translate(474.853516 0.015625)"/>
     <use xlink:href="#DejaVuSans-65" transform="translate(538.330078 0.015625)"/>
     <use xlink:href="#DejaVuSans-73" transform="translate(599.853516 0.015625)"/>
     <use xlink:href="#DejaVuSans-20" transform="translate(651.953125 0.015625)"/>
     <use xlink:href="#DejaVuSans-48" transform="translate(683.740234 0.015625)"/>
     <use xlink:href="#DejaVuSans-79" transform="translate(758.935547 0.015625)"/>
     <use xlink:href="#DejaVuSans-70" transform="translate(818.115234 0.015625)"/>
     <use xlink:href="#DejaVuSans-65" transform="translate(881.591797 0.015625)"/>
     <use xlink:href="#DejaVuSans-72" transform="translate(943.115234 0.015625)"/>
     <use xlink:href="#DejaVuSans-77" transform="translate(984.228516 0.015625)"/>
     <use xlink:href="#DejaVuSans-fc" transform="translate(1066.015625 0.015625)"/>
     <use xlink:href="#DejaVuSans-72" transform="translate(1129.394531 0.015625)"/>
     <use xlink:href="#DejaVuSans-66" transform="translate(1170.507812 0.015625)"/>
     <use xlink:href="#DejaVuSans-65" transform="translate(1205.712891 0.015625)"/>
     <use xlink:href="#DejaVuSans-6c" transform="translate(1267.236328 0.015625)"/>
     <use xlink:href="#DejaVuSans-73" transform="translate(1295.019531 0.015625)"/>
     <use xlink:href="#DejaVuSans-20" transform="translate(1347.119141 0.015625)"/>
     <use xlink:href="#DejaVuSans-6e" transform="translate(1378.90625 0.015625)"/>
     <use xlink:href="#DejaVuSans-61" transform="translate(1442.285156 0.015625)"/>
     <use xlink:href="#DejaVuSans-63" transform="translate(1503.564453 0.015625)"/>
     <use xlink:href="#DejaVuSans-68" transform="translate(1558.544922 0.015625)"/>
     <use xlink:href="#DejaVuSans-20" transform="translate(1621.923828 0.015625)"/>
     <use xlink:href="#DejaVuSans-44" transform="translate(1653.710938 0.015625)"/>
     <use xlink:href="#DejaVuSans-69" transform="translate(1730.712891 0.015625)"/>
     <use xlink:href="#DejaVuSans-6d" transform="translate(1758.496094 0.015625)"/>
     <use xlink:href="#DejaVuSans-65" transform="translate(1855.908203 0.015625)"/>
     <use xlink:href="#DejaVuSans-6e" transform="translate(1917.431641 0.015625)"/>
     <use xlink:href="#DejaVuSans-73" transform="translate(1980.810547 0.015625)"/>
     <use xlink:href="#DejaVuSans-69" transform="translate(2032.910156 0.015625)"/>
     <use xlink:href="#DejaVuSans-6f" transform="translate(2060.693359 0.015625)"/>
     <use xlink:href="#DejaVuSans-6e" transform="translate(2121.875 0.015625)"/>
     <use xlink:href="#DejaVuSans-20" transform="translate(2185.253906 0.015625)"/>
     <use xlink:href="#DejaVuSans-66" transform="translate(2217.041016 0.015625)"/>
     <use xlink:href="#DejaVuSans-fc" transform="translate(2252.246094 0.015625)"/>
     <use xlink:href="#DejaVuSans-72" transform="translate(2315.625 0.015625)"/>
     <use xlink:href="#DejaVuSans-20" transform="translate(2356.738281 0.015625)"/>
     <use xlink:href="#DejaVuSans-Oblique-64" transform="translate(2388.525391 0.015625)"/>
     <use xlink:href="#DejaVuSans-2264" transform="translate(2471.484375 0.015625)"/>
     <use xlink:href="#DejaVuSans-34" transform="translate(2574.755859 0.015625)"/>
    </g>
   </g>
  </g>
  <g id="axes_2">
   <g id="patch_7">
    <path d="M 1183.090909 945 
L 1944 945 
L 1944 129.6 
L 1183.090909 129.6 
z
" style="fill: #ffffff"/>
   </g>
   <g id="matplotlib.axis_3">
    <g id="xtick_6">
     <g id="line2d_13">
      <g>
       <use xlink:href="#m7d25a46a6d" x="1217.677686" y="945" style="stroke: #000000; stroke-width: 0.8"/>
      </g>
     </g>
     <g id="text_13">
      <!-- 0 -->
      <g transform="translate(1214.496436 959.598438)scale(0.1 -0.1)">
       <use xlink:href="#DejaVuSans-30"/>
      </g>
     </g>
    </g>
    <g id="xtick_7">
     <g id="line2d_14">
      <g>
       <use xlink:href="#m7d25a46a6d" x="1294.53719" y="945" style="stroke: #000000; stroke-width: 0.8"/>
      </g>
     </g>
     <g id="text_14">
      <!-- 2 -->
      <g transform="translate(1291.35594 959.598438)scale(0.1 -0.1)">
       <use xlink:href="#DejaVuSans-32"/>
      </g>
     </g>
    </g>
    <g id="xtick_8">
     <g id="line2d_15">
      <g>
       <use xlink:href="#m7d25a46a6d" x="1371.396694" y="945" style="stroke: #000000; stroke-width: 0.8"/>
      </g>
     </g>
     <g id="text_15">
      <!-- 4 -->
      <g transform="translate(1368.215444 959.598438)scale(0.1 -0.1)">
       <use xlink:href="#DejaVuSans-34"/>
      </g>
     </g>
    </g>
    <g id="xtick_9">
     <g id="line2d_16">
      <g>
       <use xlink:href="#m7d25a46a6d" x="1448.256198" y="945" style="stroke: #000000; stroke-width: 0.8"/>
      </g>
     </g>
     <g id="text_16">
      <!-- 6 -->
      <g transform="translate(1445.074948 959.598438)scale(0.1 -0.1)">
       <defs>
        <path id="DejaVuSans-36" d="M 2113 2584 
Q 1688 2584 1439 2293 
Q 1191 2003 1191 1497 
Q 1191 994 1439 701 
Q 1688 409 2113 409 
Q 2538 409 2786 701 
Q 3034 994 3034 1497 
Q 3034 2003 2786 2293 
Q 2538 2584 2113 2584 
z
M 3366 4563 
L 3366 3988 
Q 3128 4100 2886 4159 
Q 2644 4219 2406 4219 
Q 1781 4219 1451 3797 
Q 1122 3375 1075 2522 
Q 1259 2794 1537 2939 
Q 1816 3084 2150 3084 
Q 2853 3084 3261 2657 
Q 3669 2231 3669 1497 
Q 3669 778 3244 343 
Q 2819 -91 2113 -91 
Q 1303 -91 875 529 
Q 447 1150 447 2328 
Q 447 3434 972 4092 
Q 1497 4750 2381 4750 
Q 2619 4750 2861 4703 
Q 3103 4656 3366 4563 
z
" transform="scale(0.015625)"/>
       </defs>
       <use xlink:href="#DejaVuSans-36"/>
      </g>
     </g>
    </g>
    <g id="xtick_10">
     <g id="line2d_17">
      <g>
       <use xlink:href="#m7d25a46a6d" x="1525.115702" y="945" style="stroke: #000000; stroke-width: 0.8"/>
      </g>
     </g>
     <g id="text_17">
      <!-- 8 -->
      <g transform="translate(1521.934452 959.598438)scale(0.1 -0.1)">
       <defs>
        <path id="DejaVuSans-38" d="M 2034 2216 
Q 1584 2216 1326 1975 
Q 1069 1734 1069 1313 
Q 1069 891 1326 650 
Q 1584 409 2034 409 
Q 2484 409 2743 651 
Q 3003 894 3003 1313 
Q 3003 1734 2745 1975 
Q 2488 2216 2034 2216 
z
M 1403 2484 
Q 997 2584 770 2862 
Q 544 3141 544 3541 
Q 544 4100 942 4425 
Q 1341 4750 2034 4750 
Q 2731 4750 3128 4425 
Q 3525 4100 3525 3541 
Q 3525 3141 3298 2862 
Q 3072 2584 2669 2484 
Q 3125 2378 3379 2068 
Q 3634 1759 3634 1313 
Q 3634 634 3220 271 
Q 2806 -91 2034 -91 
Q 1263 -91 848 271 
Q 434 634 434 1313 
Q 434 1759 690 2068 
Q 947 2378 1403 2484 
z
M 1172 3481 
Q 1172 3119 1398 2916 
Q 1625 2713 2034 2713 
Q 2441 2713 2670 2916 
Q 2900 3119 2900 3481 
Q 2900 3844 2670 4047 
Q 2441 4250 2034 4250 
Q 1625 4250 1398 4047 
Q 1172 3844 1172 3481 
z
" transform="scale(0.015625)"/>
       </defs>
       <use xlink:href="#DejaVuSans-38"/>
      </g>
     </g>
    </g>
    <g id="xtick_11">
     <g id="line2d_18">
      <g>
       <use xlink:href="#m7d25a46a6d" x="1601.975207" y="945" style="stroke: #000000; stroke-width: 0.8"/>
      </g>
     </g>
     <g id="text_18">
      <!-- 10 -->
      <g transform="translate(1595.612707 959.598438)scale(0.1 -0.1)">
       <use xlink:href="#DejaVuSans-31"/>
       <use xlink:href="#DejaVuSans-30" x="63.623047"/>
      </g>
     </g>
    </g>
    <g id="xtick_12">
     <g id="line2d_19">
      <g>
       <use xlink:href="#m7d25a46a6d" x="1678.834711" y="945" style="stroke: #000000; stroke-width: 0.8"/>
      </g>
     </g>
     <g id="text_19">
      <!-- 12 -->
      <g transform="translate(1672.472211 959.598438)scale(0.1 -0.1)">
       <use xlink:href="#DejaVuSans-31"/>
       <use xlink:href="#DejaVuSans-32" x="63.623047"/>
      </g>
     </g>
    </g>
    <g id="xtick_13">
     <g id="line2d_20">
      <g>
       <use xlink:href="#m7d25a46a6d" x="1755.694215" y="945" style="stroke: #000000; stroke-width: 0.8"/>
      </g>
     </g>
     <g id="text_20">
      <!-- 14 -->
      <g transform="translate(1749.331715 959.598438)scale(0.1 -0.1)">
       <use xlink:href="#DejaVuSans-31"/>
       <use xlink:href="#DejaVuSans-34" x="63.623047"/>
      </g>
     </g>
    </g>
    <g id="xtick_14">
     <g id="line2d_21">
      <g>
       <use xlink:href="#m7d25a46a6d" x="1832.553719" y="945" style="stroke: #000000; stroke-width: 0.8"/>
      </g>
     </g>
     <g id="text_21">
      <!-- 16 -->
      <g transform="translate(1826.191219 959.598438)scale(0.1 -0.1)">
       <use xlink:href="#DejaVuSans-31"/>
       <use xlink:href="#DejaVuSans-36" x="63.623047"/>
      </g>
     </g>
    </g>
    <g id="xtick_15">
     <g id="line2d_22">
      <g>
       <use xlink:href="#m7d25a46a6d" x="1909.413223" y="945" style="stroke: #000000; stroke-width: 0.8"/>
      </g>
     </g>
     <g id="text_22">
      <!-- 18 -->
      <g transform="translate(1903.050723 959.598438)scale(0.1 -0.1)">
       <use xlink:href="#DejaVuSans-31"/>
       <use xlink:href="#DejaVuSans-38" x="63.623047"/>
      </g>
     </g>
    </g>
   </g>
   <g id="matplotlib.axis_4">
    <g id="ytick_7">
     <g id="line2d_23">
      <g>
       <use xlink:href="#md68f50925b" x="1183.090909" y="907.939191" style="stroke: #000000; stroke-width: 0.8"/>
      </g>
     </g>
     <g id="text_23">
      <!-- 0 -->
      <g transform="translate(1169.728409 911.73841)scale(0.1 -0.1)">
       <use xlink:href="#DejaVuSans-30"/>
      </g>
     </g>
    </g>
    <g id="ytick_8">
     <g id="line2d_24">
      <g>
       <use xlink:href="#md68f50925b" x="1183.090909" y="766.5521" style="stroke: #000000; stroke-width: 0.8"/>
      </g>
     </g>
     <g id="text_24">
      <!-- 100000 -->
      <g transform="translate(1137.915909 770.351318)scale(0.1 -0.1)">
       <use xlink:href="#DejaVuSans-31"/>
       <use xlink:href="#DejaVuSans-30" x="63.623047"/>
       <use xlink:href="#DejaVuSans-30" x="127.246094"/>
       <use xlink:href="#DejaVuSans-30" x="190.869141"/>
       <use xlink:href="#DejaVuSans-30" x="254.492188"/>
       <use xlink:href="#DejaVuSans-30" x="318.115234"/>
      </g>
     </g>
    </g>
    <g id="ytick_9">
     <g id="line2d_25">
      <g>
       <use xlink:href="#md68f50925b" x="1183.090909" y="625.165008" style="stroke: #000000; stroke-width: 0.8"/>
      </g>
     </g>
     <g id="text_25">
      <!-- 200000 -->
      <g transform="translate(1137.915909 628.964227)scale(0.1 -0.1)">
       <use xlink:href="#DejaVuSans-32"/>
       <use xlink:href="#DejaVuSans-30" x="63.623047"/>
       <use xlink:href="#DejaVuSans-30" x="127.246094"/>
       <use xlink:href="#DejaVuSans-30" x="190.869141"/>
       <use xlink:href="#DejaVuSans-30" x="254.492188"/>
       <use xlink:href="#DejaVuSans-30" x="318.115234"/>
      </g>
     </g>
    </g>
    <g id="ytick_10">
     <g id="line2d_26">
      <g>
       <use xlink:href="#md68f50925b" x="1183.090909" y="483.777916" style="stroke: #000000; stroke-width: 0.8"/>
      </g>
     </g>
     <g id="text_26">
      <!-- 300000 -->
      <g transform="translate(1137.915909 487.577135)scale(0.1 -0.1)">
       <use xlink:href="#DejaVuSans-33"/>
       <use xlink:href="#DejaVuSans-30" x="63.623047"/>
       <use xlink:href="#DejaVuSans-30" x="127.246094"/>
       <use xlink:href="#DejaVuSans-30" x="190.869141"/>
       <use xlink:href="#DejaVuSans-30" x="254.492188"/>
       <use xlink:href="#DejaVuSans-30" x="318.115234"/>
      </g>
     </g>
    </g>
    <g id="ytick_11">
     <g id="line2d_27">
      <g>
       <use xlink:href="#md68f50925b" x="1183.090909" y="342.390825" style="stroke: #000000; stroke-width: 0.8"/>
      </g>
     </g>
     <g id="text_27">
      <!-- 400000 -->
      <g transform="translate(1137.915909 346.190044)scale(0.1 -0.1)">
       <use xlink:href="#DejaVuSans-34"/>
       <use xlink:href="#DejaVuSans-30" x="63.623047"/>
       <use xlink:href="#DejaVuSans-30" x="127.246094"/>
       <use xlink:href="#DejaVuSans-30" x="190.869141"/>
       <use xlink:href="#DejaVuSans-30" x="254.492188"/>
       <use xlink:href="#DejaVuSans-30" x="318.115234"/>
      </g>
     </g>
    </g>
    <g id="ytick_12">
     <g id="line2d_28">
      <g>
       <use xlink:href="#md68f50925b" x="1183.090909" y="201.003733" style="stroke: #000000; stroke-width: 0.8"/>
      </g>
     </g>
     <g id="text_28">
      <!-- 500000 -->
      <g transform="translate(1137.915909 204.802952)scale(0.1 -0.1)">
       <use xlink:href="#DejaVuSans-35"/>
       <use xlink:href="#DejaVuSans-30" x="63.623047"/>
       <use xlink:href="#DejaVuSans-30" x="127.246094"/>
       <use xlink:href="#DejaVuSans-30" x="190.869141"/>
       <use xlink:href="#DejaVuSans-30" x="254.492188"/>
       <use xlink:href="#DejaVuSans-30" x="318.115234"/>
      </g>
     </g>
    </g>
   </g>
   <g id="line2d_29">
    <path d="M 1217.677686 907.936364 
L 1256.107438 907.933536 
L 1294.53719 907.92788 
L 1332.966942 907.916569 
L 1371.396694 907.893948 
L 1409.826446 907.848704 
L 1448.256198 907.758216 
L 1486.68595 907.57724 
L 1525.115702 907.215289 
L 1563.545455 906.491388 
L 1601.975207 905.043584 
L 1640.404959 902.147976 
L 1678.834711 896.356761 
L 1717.264463 884.77433 
L 1755.694215 861.609469 
L 1794.123967 815.279747 
L 1832.553719 722.620303 
L 1870.983471 537.301414 
L 1909.413223 166.663636 
" clip-path="url(#p39d2c4c13d)" style="fill: none; stroke-dasharray: 5.55,2.4; stroke-dashoffset: 0; stroke: #1f77b4; stroke-width: 1.5"/>
    <g clip-path="url(#p39d2c4c13d)">
     <use xlink:href="#mddedc5275f" x="1217.677686" y="907.936364" style="fill: #1f77b4; stroke: #1f77b4"/>
     <use xlink:href="#mddedc5275f" x="1256.107438" y="907.933536" style="fill: #1f77b4; stroke: #1f77b4"/>
     <use xlink:href="#mddedc5275f" x="1294.53719" y="907.92788" style="fill: #1f77b4; stroke: #1f77b4"/>
     <use xlink:href="#mddedc5275f" x="1332.966942" y="907.916569" style="fill: #1f77b4; stroke: #1f77b4"/>
     <use xlink:href="#mddedc5275f" x="1371.396694" y="907.893948" style="fill: #1f77b4; stroke: #1f77b4"/>
     <use xlink:href="#mddedc5275f" x="1409.826446" y="907.848704" style="fill: #1f77b4; stroke: #1f77b4"/>
     <use xlink:href="#mddedc5275f" x="1448.256198" y="907.758216" style="fill: #1f77b4; stroke: #1f77b4"/>
     <use xlink:href="#mddedc5275f" x="1486.68595" y="907.57724" style="fill: #1f77b4; stroke: #1f77b4"/>
     <use xlink:href="#mddedc5275f" x="1525.115702" y="907.215289" style="fill: #1f77b4; stroke: #1f77b4"/>
     <use xlink:href="#mddedc5275f" x="1563.545455" y="906.491388" style="fill: #1f77b4; stroke: #1f77b4"/>
     <use xlink:href="#mddedc5275f" x="1601.975207" y="905.043584" style="fill: #1f77b4; stroke: #1f77b4"/>
     <use xlink:href="#mddedc5275f" x="1640.404959" y="902.147976" style="fill: #1f77b4; stroke: #1f77b4"/>
     <use xlink:href="#mddedc5275f" x="1678.834711" y="896.356761" style="fill: #1f77b4; stroke: #1f77b4"/>
     <use xlink:href="#mddedc5275f" x="1717.264463" y="884.77433" style="fill: #1f77b4; stroke: #1f77b4"/>
     <use xlink:href="#mddedc5275f" x="1755.694215" y="861.609469" style="fill: #1f77b4; stroke: #1f77b4"/>
     <use xlink:href="#mddedc5275f" x="1794.123967" y="815.279747" style="fill: #1f77b4; stroke: #1f77b4"/>
     <use xlink:href="#mddedc5275f" x="1832.553719" y="722.620303" style="fill: #1f77b4; stroke: #1f77b4"/>
     <use xlink:href="#mddedc5275f" x="1870.983471" y="537.301414" style="fill: #1f77b4; stroke: #1f77b4"/>
     <use xlink:href="#mddedc5275f" x="1909.413223" y="166.663636" style="fill: #1f77b4; stroke: #1f77b4"/>
    </g>
   </g>
   <g id="patch_8">
    <path d="M 1183.090909 945 
L 1183.090909 129.6 
" style="fill: none; stroke: #000000; stroke-width: 0.8; stroke-linejoin: miter; stroke-linecap: square"/>
   </g>
   <g id="patch_9">
    <path d="M 1944 945 
L 1944 129.6 
" style="fill: none; stroke: #000000; stroke-width: 0.8; stroke-linejoin: miter; stroke-linecap: square"/>
   </g>
   <g id="patch_10">
    <path d="M 1183.090909 945 
L 1944 945 
" style="fill: none; stroke: #000000; stroke-width: 0.8; stroke-linejoin: miter; stroke-linecap: square"/>
   </g>
   <g id="patch_11">
    <path d="M 1183.090909 129.6 
L 1944 129.6 
" style="fill: none; stroke: #000000; stroke-width: 0.8; stroke-linejoin: miter; stroke-linecap: square"/>
   </g>
   <g id="text_29">
    <!-- Volumen des Hyperwürfels nach Dimension für $d \leq 20$ -->
    <g transform="translate(1401.365455 123.6)scale(0.12 -0.12)">
     <use xlink:href="#DejaVuSans-56" transform="translate(0 0.015625)"/>
     <use xlink:href="#DejaVuSans-6f" transform="translate(68.408203 0.015625)"/>
     <use xlink:href="#DejaVuSans-6c" transform="translate(129.589844 0.015625)"/>
     <use xlink:href="#DejaVuSans-75" transform="translate(157.373047 0.015625)"/>
     <use xlink:href="#DejaVuSans-6d" transform="translate(220.751953 0.015625)"/>
     <use xlink:href="#DejaVuSans-65" transform="translate(318.164062 0.015625)"/>
     <use xlink:href="#DejaVuSans-6e" transform="translate(379.6875 0.015625)"/>
     <use xlink:href="#DejaVuSans-20" transform="translate(443.066406 0.015625)"/>
     <use xlink:href="#DejaVuSans-64" transform="translate(474.853516 0.015625)"/>
     <use xlink:href="#DejaVuSans-65" transform="translate(538.330078 0.015625)"/>
     <use xlink:href="#DejaVuSans-73" transform="translate(599.853516 0.015625)"/>
     <use xlink:href="#DejaVuSans-20" transform="translate(651.953125 0.015625)"/>
     <use xlink:href="#DejaVuSans-48" transform="translate(683.740234 0.015625)"/>
     <use xlink:href="#DejaVuSans-79" transform="translate(758.935547 0.015625)"/>
     <use xlink:href="#DejaVuSans-70" transform="translate(818.115234 0.015625)"/>
     <use xlink:href="#DejaVuSans-65" transform="translate(881.591797 0.015625)"/>
     <use xlink:href="#DejaVuSans-72" transform="translate(943.115234 0.015625)"/>
     <use xlink:href="#DejaVuSans-77" transform="translate(984.228516 0.015625)"/>
     <use xlink:href="#DejaVuSans-fc" transform="translate(1066.015625 0.015625)"/>
     <use xlink:href="#DejaVuSans-72" transform="translate(1129.394531 0.015625)"/>
     <use xlink:href="#DejaVuSans-66" transform="translate(1170.507812 0.015625)"/>
     <use xlink:href="#DejaVuSans-65" transform="translate(1205.712891 0.015625)"/>
     <use xlink:href="#DejaVuSans-6c" transform="translate(1267.236328 0.015625)"/>
     <use xlink:href="#DejaVuSans-73" transform="translate(1295.019531 0.015625)"/>
     <use xlink:href="#DejaVuSans-20" transform="translate(1347.119141 0.015625)"/>
     <use xlink:href="#DejaVuSans-6e" transform="translate(1378.90625 0.015625)"/>
     <use xlink:href="#DejaVuSans-61" transform="translate(1442.285156 0.015625)"/>
     <use xlink:href="#DejaVuSans-63" transform="translate(1503.564453 0.015625)"/>
     <use xlink:href="#DejaVuSans-68" transform="translate(1558.544922 0.015625)"/>
     <use xlink:href="#DejaVuSans-20" transform="translate(1621.923828 0.015625)"/>
     <use xlink:href="#DejaVuSans-44" transform="translate(1653.710938 0.015625)"/>
     <use xlink:href="#DejaVuSans-69" transform="translate(1730.712891 0.015625)"/>
     <use xlink:href="#DejaVuSans-6d" transform="translate(1758.496094 0.015625)"/>
     <use xlink:href="#DejaVuSans-65" transform="translate(1855.908203 0.015625)"/>
     <use xlink:href="#DejaVuSans-6e" transform="translate(1917.431641 0.015625)"/>
     <use xlink:href="#DejaVuSans-73" transform="translate(1980.810547 0.015625)"/>
     <use xlink:href="#DejaVuSans-69" transform="translate(2032.910156 0.015625)"/>
     <use xlink:href="#DejaVuSans-6f" transform="translate(2060.693359 0.015625)"/>
     <use xlink:href="#DejaVuSans-6e" transform="translate(2121.875 0.015625)"/>
     <use xlink:href="#DejaVuSans-20" transform="translate(2185.253906 0.015625)"/>
     <use xlink:href="#DejaVuSans-66" transform="translate(2217.041016 0.015625)"/>
     <use xlink:href="#DejaVuSans-fc" transform="translate(2252.246094 0.015625)"/>
     <use xlink:href="#DejaVuSans-72" transform="translate(2315.625 0.015625)"/>
     <use xlink:href="#DejaVuSans-20" transform="translate(2356.738281 0.015625)"/>
     <use xlink:href="#DejaVuSans-Oblique-64" transform="translate(2388.525391 0.015625)"/>
     <use xlink:href="#DejaVuSans-2264" transform="translate(2471.484375 0.015625)"/>
     <use xlink:href="#DejaVuSans-32" transform="translate(2574.755859 0.015625)"/>
     <use xlink:href="#DejaVuSans-30" transform="translate(2638.378906 0.015625)"/>
    </g>
   </g>
  </g>
  <g id="text_30">
   <!-- Volumen des Hyperwürfels nach Dimension -->
   <g transform="translate(949.350937 30.718125)scale(0.12 -0.12)">
    <use xlink:href="#DejaVuSans-56"/>
    <use xlink:href="#DejaVuSans-6f" x="60.658203"/>
    <use xlink:href="#DejaVuSans-6c" x="121.839844"/>
    <use xlink:href="#DejaVuSans-75" x="149.623047"/>
    <use xlink:href="#DejaVuSans-6d" x="213.001953"/>
    <use xlink:href="#DejaVuSans-65" x="310.414062"/>
    <use xlink:href="#DejaVuSans-6e" x="371.9375"/>
    <use xlink:href="#DejaVuSans-20" x="435.316406"/>
    <use xlink:href="#DejaVuSans-64" x="467.103516"/>
    <use xlink:href="#DejaVuSans-65" x="530.580078"/>
    <use xlink:href="#DejaVuSans-73" x="592.103516"/>
    <use xlink:href="#DejaVuSans-20" x="644.203125"/>
    <use xlink:href="#DejaVuSans-48" x="675.990234"/>
    <use xlink:href="#DejaVuSans-79" x="751.185547"/>
    <use xlink:href="#DejaVuSans-70" x="810.365234"/>
    <use xlink:href="#DejaVuSans-65" x="873.841797"/>
    <use xlink:href="#DejaVuSans-72" x="935.365234"/>
    <use xlink:href="#DejaVuSans-77" x="976.478516"/>
    <use xlink:href="#DejaVuSans-fc" x="1058.265625"/>
    <use xlink:href="#DejaVuSans-72" x="1121.644531"/>
    <use xlink:href="#DejaVuSans-66" x="1162.757812"/>
    <use xlink:href="#DejaVuSans-65" x="1197.962891"/>
    <use xlink:href="#DejaVuSans-6c" x="1259.486328"/>
    <use xlink:href="#DejaVuSans-73" x="1287.269531"/>
    <use xlink:href="#DejaVuSans-20" x="1339.369141"/>
    <use xlink:href="#DejaVuSans-6e" x="1371.15625"/>
    <use xlink:href="#DejaVuSans-61" x="1434.535156"/>
    <use xlink:href="#DejaVuSans-63" x="1495.814453"/>
    <use xlink:href="#DejaVuSans-68" x="1550.794922"/>
    <use xlink:href="#DejaVuSans-20" x="1614.173828"/>
    <use xlink:href="#DejaVuSans-44" x="1645.960938"/>
    <use xlink:href="#DejaVuSans-69" x="1722.962891"/>
    <use xlink:href="#DejaVuSans-6d" x="1750.746094"/>
    <use xlink:href="#DejaVuSans-65" x="1848.158203"/>
    <use xlink:href="#DejaVuSans-6e" x="1909.681641"/>
    <use xlink:href="#DejaVuSans-73" x="1973.060547"/>
    <use xlink:href="#DejaVuSans-69" x="2025.160156"/>
    <use xlink:href="#DejaVuSans-6f" x="2052.943359"/>
    <use xlink:href="#DejaVuSans-6e" x="2114.125"/>
   </g>
  </g>
 </g>
 <defs>
  <clipPath id="p9e9c6fb00b">
   <rect x="270" y="129.6" width="760.909091" height="815.4"/>
  </clipPath>
  <clipPath id="p39d2c4c13d">
   <rect x="1183.090909" y="129.6" width="760.909091" height="815.4"/>
  </clipPath>
 </defs>
</svg>
